<?xml version="1.0" encoding="UTF-8" standalone="no"?>
<svg width="200px" height="180px" viewBox="0 0 200 180" version="1.1" xmlns="http://www.w3.org/2000/svg" xmlns:xlink="http://www.w3.org/1999/xlink">
    <!-- Generator: Sketch 3.8.2 (29753) - http://www.bohemiancoding.com/sketch -->
    <title>binary</title>
    <desc>Created with Sketch.</desc>
    <defs></defs>
    <g id="Page-1" stroke="none" stroke-width="1" fill="none" fill-rule="evenodd">
        <g id="binary" fill="#000000">
            <path d="M17.825,40.495 C24.98,40.495 29.165,34.06 29.165,22.81 C29.165,13.36 26.06,5.44 18.05,5.44 C10.4,5.44 6.575,12.73 6.575,23.08 C6.575,32.575 9.905,40.495 17.825,40.495 L17.825,40.495 Z M17.87,35.23 C14.9,35.23 13.235,31 13.235,22.945 C13.235,14.845 15.08,10.705 17.96,10.705 C21.11,10.705 22.505,15.25 22.505,22.945 C22.505,30.91 20.975,35.23 17.915,35.23 L17.87,35.23 Z M49.18,5.98 L43.6,5.98 L35.32,10.21 L36.76,14.98 L42.61,11.92 L42.7,11.92 L42.7,40 L49.18,40 L49.18,5.98 Z M75.72,5.98 L70.14,5.98 L61.86,10.21 L63.3,14.98 L69.15,11.92 L69.24,11.92 L69.24,40 L75.72,40 L75.72,5.98 Z M97.445,40.495 C104.6,40.495 108.785,34.06 108.785,22.81 C108.785,13.36 105.68,5.44 97.67,5.44 C90.02,5.44 86.195,12.73 86.195,23.08 C86.195,32.575 89.525,40.495 97.445,40.495 L97.445,40.495 Z M97.49,35.23 C94.52,35.23 92.855,31 92.855,22.945 C92.855,14.845 94.7,10.705 97.58,10.705 C100.73,10.705 102.125,15.25 102.125,22.945 C102.125,30.91 100.595,35.23 97.535,35.23 L97.49,35.23 Z M139.32,5.98 L133.74,5.98 L125.46,10.21 L126.9,14.98 L132.75,11.92 L132.84,11.92 L132.84,40 L139.32,40 L139.32,5.98 Z M165.86,5.98 L160.28,5.98 L152,10.21 L153.44,14.98 L159.29,11.92 L159.38,11.92 L159.38,40 L165.86,40 L165.86,5.98 Z M187.585,40.495 C194.74,40.495 198.925,34.06 198.925,22.81 C198.925,13.36 195.82,5.44 187.81,5.44 C180.16,5.44 176.335,12.73 176.335,23.08 C176.335,32.575 179.665,40.495 187.585,40.495 L187.585,40.495 Z M187.63,35.23 C184.66,35.23 182.995,31 182.995,22.945 C182.995,14.845 184.84,10.705 187.72,10.705 C190.87,10.705 192.265,15.25 192.265,22.945 C192.265,30.91 190.735,35.23 187.675,35.23 L187.63,35.23 Z M22.64,50.98 L17.06,50.98 L8.78,55.21 L10.22,59.98 L16.07,56.92 L16.16,56.92 L16.16,85 L22.64,85 L22.64,50.98 Z M44.365,85.495 C51.52,85.495 55.705,79.06 55.705,67.81 C55.705,58.36 52.6,50.44 44.59,50.44 C36.94,50.44 33.115,57.73 33.115,68.08 C33.115,77.575 36.445,85.495 44.365,85.495 L44.365,85.495 Z M44.41,80.23 C41.44,80.23 39.775,76 39.775,67.945 C39.775,59.845 41.62,55.705 44.5,55.705 C47.65,55.705 49.045,60.25 49.045,67.945 C49.045,75.91 47.515,80.23 44.455,80.23 L44.41,80.23 Z M70.905,85.495 C78.06,85.495 82.245,79.06 82.245,67.81 C82.245,58.36 79.14,50.44 71.13,50.44 C63.48,50.44 59.655,57.73 59.655,68.08 C59.655,77.575 62.985,85.495 70.905,85.495 L70.905,85.495 Z M70.95,80.23 C67.98,80.23 66.315,76 66.315,67.945 C66.315,59.845 68.16,55.705 71.04,55.705 C74.19,55.705 75.585,60.25 75.585,67.945 C75.585,75.91 74.055,80.23 70.995,80.23 L70.95,80.23 Z M112.78,50.98 L107.2,50.98 L98.92,55.21 L100.36,59.98 L106.21,56.92 L106.3,56.92 L106.3,85 L112.78,85 L112.78,50.98 Z M134.505,85.495 C141.66,85.495 145.845,79.06 145.845,67.81 C145.845,58.36 142.74,50.44 134.73,50.44 C127.08,50.44 123.255,57.73 123.255,68.08 C123.255,77.575 126.585,85.495 134.505,85.495 L134.505,85.495 Z M134.55,80.23 C131.58,80.23 129.915,76 129.915,67.945 C129.915,59.845 131.76,55.705 134.64,55.705 C137.79,55.705 139.185,60.25 139.185,67.945 C139.185,75.91 137.655,80.23 134.595,80.23 L134.55,80.23 Z M161.045,85.495 C168.2,85.495 172.385,79.06 172.385,67.81 C172.385,58.36 169.28,50.44 161.27,50.44 C153.62,50.44 149.795,57.73 149.795,68.08 C149.795,77.575 153.125,85.495 161.045,85.495 L161.045,85.495 Z M161.09,80.23 C158.12,80.23 156.455,76 156.455,67.945 C156.455,59.845 158.3,55.705 161.18,55.705 C164.33,55.705 165.725,60.25 165.725,67.945 C165.725,75.91 164.195,80.23 161.135,80.23 L161.09,80.23 Z M192.4,50.98 L186.82,50.98 L178.54,55.21 L179.98,59.98 L185.83,56.92 L185.92,56.92 L185.92,85 L192.4,85 L192.4,50.98 Z M22.64,95.98 L17.06,95.98 L8.78,100.21 L10.22,104.98 L16.07,101.92 L16.16,101.92 L16.16,130 L22.64,130 L22.64,95.98 Z M49.18,95.98 L43.6,95.98 L35.32,100.21 L36.76,104.98 L42.61,101.92 L42.7,101.92 L42.7,130 L49.18,130 L49.18,95.98 Z M86.24,95.98 L80.66,95.98 L72.38,100.21 L73.82,104.98 L79.67,101.92 L79.76,101.92 L79.76,130 L86.24,130 L86.24,95.98 Z M107.965,130.495 C115.12,130.495 119.305,124.06 119.305,112.81 C119.305,103.36 116.2,95.44 108.19,95.44 C100.54,95.44 96.715,102.73 96.715,113.08 C96.715,122.575 100.045,130.495 107.965,130.495 L107.965,130.495 Z M108.01,125.23 C105.04,125.23 103.375,121 103.375,112.945 C103.375,104.845 105.22,100.705 108.1,100.705 C111.25,100.705 112.645,105.25 112.645,112.945 C112.645,120.91 111.115,125.23 108.055,125.23 L108.01,125.23 Z M134.505,130.495 C141.66,130.495 145.845,124.06 145.845,112.81 C145.845,103.36 142.74,95.44 134.73,95.44 C127.08,95.44 123.255,102.73 123.255,113.08 C123.255,122.575 126.585,130.495 134.505,130.495 L134.505,130.495 Z M134.55,125.23 C131.58,125.23 129.915,121 129.915,112.945 C129.915,104.845 131.76,100.705 134.64,100.705 C137.79,100.705 139.185,105.25 139.185,112.945 C139.185,120.91 137.655,125.23 134.595,125.23 L134.55,125.23 Z M161.045,130.495 C168.2,130.495 172.385,124.06 172.385,112.81 C172.385,103.36 169.28,95.44 161.27,95.44 C153.62,95.44 149.795,102.73 149.795,113.08 C149.795,122.575 153.125,130.495 161.045,130.495 L161.045,130.495 Z M161.09,125.23 C158.12,125.23 156.455,121 156.455,112.945 C156.455,104.845 158.3,100.705 161.18,100.705 C164.33,100.705 165.725,105.25 165.725,112.945 C165.725,120.91 164.195,125.23 161.135,125.23 L161.09,125.23 Z M187.585,130.495 C194.74,130.495 198.925,124.06 198.925,112.81 C198.925,103.36 195.82,95.44 187.81,95.44 C180.16,95.44 176.335,102.73 176.335,113.08 C176.335,122.575 179.665,130.495 187.585,130.495 L187.585,130.495 Z M187.63,125.23 C184.66,125.23 182.995,121 182.995,112.945 C182.995,104.845 184.84,100.705 187.72,100.705 C190.87,100.705 192.265,105.25 192.265,112.945 C192.265,120.91 190.735,125.23 187.675,125.23 L187.63,125.23 Z M17.825,175.495 C24.98,175.495 29.165,169.06 29.165,157.81 C29.165,148.36 26.06,140.44 18.05,140.44 C10.4,140.44 6.575,147.73 6.575,158.08 C6.575,167.575 9.905,175.495 17.825,175.495 L17.825,175.495 Z M17.87,170.23 C14.9,170.23 13.235,166 13.235,157.945 C13.235,149.845 15.08,145.705 17.96,145.705 C21.11,145.705 22.505,150.25 22.505,157.945 C22.505,165.91 20.975,170.23 17.915,170.23 L17.87,170.23 Z M59.7,140.98 L54.12,140.98 L45.84,145.21 L47.28,149.98 L53.13,146.92 L53.22,146.92 L53.22,175 L59.7,175 L59.7,140.98 Z M81.425,175.495 C88.58,175.495 92.765,169.06 92.765,157.81 C92.765,148.36 89.66,140.44 81.65,140.44 C74,140.44 70.175,147.73 70.175,158.08 C70.175,167.575 73.505,175.495 81.425,175.495 L81.425,175.495 Z M81.47,170.23 C78.5,170.23 76.835,166 76.835,157.945 C76.835,149.845 78.68,145.705 81.56,145.705 C84.71,145.705 86.105,150.25 86.105,157.945 C86.105,165.91 84.575,170.23 81.515,170.23 L81.47,170.23 Z M107.965,175.495 C115.12,175.495 119.305,169.06 119.305,157.81 C119.305,148.36 116.2,140.44 108.19,140.44 C100.54,140.44 96.715,147.73 96.715,158.08 C96.715,167.575 100.045,175.495 107.965,175.495 L107.965,175.495 Z M108.01,170.23 C105.04,170.23 103.375,166 103.375,157.945 C103.375,149.845 105.22,145.705 108.1,145.705 C111.25,145.705 112.645,150.25 112.645,157.945 C112.645,165.91 111.115,170.23 108.055,170.23 L108.01,170.23 Z M139.32,140.98 L133.74,140.98 L125.46,145.21 L126.9,149.98 L132.75,146.92 L132.84,146.92 L132.84,175 L139.32,175 L139.32,140.98 Z M161.045,175.495 C168.2,175.495 172.385,169.06 172.385,157.81 C172.385,148.36 169.28,140.44 161.27,140.44 C153.62,140.44 149.795,147.73 149.795,158.08 C149.795,167.575 153.125,175.495 161.045,175.495 L161.045,175.495 Z M161.09,170.23 C158.12,170.23 156.455,166 156.455,157.945 C156.455,149.845 158.3,145.705 161.18,145.705 C164.33,145.705 165.725,150.25 165.725,157.945 C165.725,165.91 164.195,170.23 161.135,170.23 L161.09,170.23 Z M187.585,175.495 C194.74,175.495 198.925,169.06 198.925,157.81 C198.925,148.36 195.82,140.44 187.81,140.44 C180.16,140.44 176.335,147.73 176.335,158.08 C176.335,167.575 179.665,175.495 187.585,175.495 L187.585,175.495 Z M187.63,170.23 C184.66,170.23 182.995,166 182.995,157.945 C182.995,149.845 184.84,145.705 187.72,145.705 C190.87,145.705 192.265,150.25 192.265,157.945 C192.265,165.91 190.735,170.23 187.675,170.23 L187.63,170.23 Z" id="0110-110"></path>
        </g>
    </g>
</svg>