<?xml version="1.0" encoding="UTF-8" standalone="no"?>
<svg width="200px" height="200px" viewBox="0 0 200 200" version="1.1" xmlns="http://www.w3.org/2000/svg" xmlns:xlink="http://www.w3.org/1999/xlink" xmlns:sketch="http://www.bohemiancoding.com/sketch/ns">
    <!-- Generator: Sketch 3.4.4 (17249) - http://www.bohemiancoding.com/sketch -->
    <title>icon-instagram</title>
    <desc>Created with Sketch.</desc>
    <defs></defs>
    <g id="Page-1" stroke="none" stroke-width="1" fill="none" fill-rule="evenodd" sketch:type="MSPage">
        <g id="Icon:-Instagram" sketch:type="MSArtboardGroup" fill="#FFFFFF">
            <path d="M0,20.7906259 C0,9.30828026 9.31162597,0 20.7906259,0 L179.209374,0 C190.69172,0 200,9.31162597 200,20.7906259 L200,179.209374 C200,190.69172 190.688374,200 179.209374,200 L20.7906259,200 C9.30828026,200 0,190.688374 0,179.209374 L0,20.7906259 L0,20.7906259 Z M41.3482141,83.0396881 L23.3766234,82.9610419 L23.3766234,168.838937 C23.3766234,173.122645 26.873375,176.623377 31.1868367,176.623377 L168.813163,176.623377 C173.134672,176.623377 176.623377,173.145312 176.623377,168.854902 L176.623377,83.6316712 L158.797695,83.5536635 C160.258154,88.7859717 161.038961,94.3018022 161.038961,100 C161.038961,133.710887 133.710887,161.038961 100,161.038961 C66.2891127,161.038961 38.961039,133.710887 38.961039,100 C38.961039,94.1148886 39.7939105,88.4243048 41.3482141,83.0396881 L41.3482141,83.0396881 Z M100,137.662338 C120.800335,137.662338 137.662338,120.800335 137.662338,100 C137.662338,79.1996653 120.800335,62.3376623 100,62.3376623 C79.1996653,62.3376623 62.3376623,79.1996653 62.3376623,100 C62.3376623,120.800335 79.1996653,137.662338 100,137.662338 L100,137.662338 Z M137.662338,28.5699285 C137.662338,24.2672394 141.154158,20.7792208 145.453045,20.7792208 L168.832669,20.7792208 C173.135358,20.7792208 176.623377,24.2710409 176.623377,28.5699285 L176.623377,51.949552 C176.623377,56.2522411 173.131557,59.7402597 168.832669,59.7402597 L145.453045,59.7402597 C141.150356,59.7402597 137.662338,56.2484397 137.662338,51.949552 L137.662338,28.5699285 L137.662338,28.5699285 Z" id="camera" sketch:type="MSShapeGroup"></path>
        </g>
    </g>
</svg>