<?xml version="1.0" encoding="UTF-8" standalone="no"?>
<svg width="233px" height="333px" viewBox="0 0 233 333" version="1.1" xmlns="http://www.w3.org/2000/svg" xmlns:xlink="http://www.w3.org/1999/xlink">
    <!-- Generator: Sketch 39.1 (31720) - http://www.bohemiancoding.com/sketch -->
    <title>pdf-icon</title>
    <desc>Created with Sketch.</desc>
    <defs>
        <polygon id="path-1" points="1 50.2027027 50.0751073 1 232 1 232 332 1 332"></polygon>
        <mask id="mask-2" maskContentUnits="userSpaceOnUse" maskUnits="objectBoundingBox" x="-1" y="-1" width="233" height="333">
            <rect x="0" y="0" width="233" height="333" fill="white"></rect>
            <use xlink:href="#path-1" fill="black"></use>
        </mask>
    </defs>
    <g id="Page-1" stroke="none" stroke-width="1" fill="none" fill-rule="evenodd">
        <g id="pdf-icon">
            <g id="Rectangle-4">
                <use fill="#FFFFFF" fill-rule="evenodd" xlink:href="#path-1"></use>
                <use stroke-opacity="0.349665987" stroke="#000000" mask="url(#mask-2)" stroke-width="2" xlink:href="#path-1"></use>
            </g>
            <g id="acrobat-glyph" transform="translate(55.000000, 79.000000)">
                <rect id="background" fill="#ED0000" x="0" y="0" width="124" height="124" rx="30"></rect>
                <g id="symbol" transform="translate(11.366667, 13.433333)" fill="#FFFFFF">
                    <path d="M52.21888,18.9999 L49.9414133,18.7113933 C49.9414133,18.7113933 44.5660133,43.7796467 38.1860067,52.0242 C31.806,60.2687533 11.4813667,68.7689533 11.4813667,68.7689533 L15.2385667,71.6678667 C15.2385667,71.6678667 34.7696,62.4472267 41.0938067,54.2750067 C47.4180133,46.10258 52.21888,18.9999 52.21888,18.9999 L52.21888,18.9999 Z" id="Shape"></path>
                    <path d="M83.58778,76.7487667 L80.7027133,72.2589333 C80.7027133,72.2589333 57.4010467,57.3510333 52.3933067,48.21058 C47.3857733,39.0701267 47.71644,17.0411133 47.71644,17.0411133 L44.44284,21.4629533 C44.44284,21.4629533 44.2045533,40.9183467 49.1682733,49.97882 C54.1319933,59.0392933 83.58778,76.7487667 83.58778,76.7487667 L83.58778,76.7487667 Z" id="Shape"></path>
                    <path d="M15.10692,62.1403267 L17.422,63.6165467 C17.422,63.6165467 40.39176,56.3912733 50.71786,57.80074 C61.04396,59.2102067 79.4234467,70.2891933 79.4234467,70.2891933 L80.23172,65.5573533 C80.23172,65.5573533 61.45192,55.5534467 51.2161333,54.15638 C40.9803467,52.7593133 15.10692,62.1403267 15.10692,62.1403267 L15.10692,62.1403267 Z" id="Shape"></path>
                    <path d="M47.3105467,3.36066753 L47.3105467,3.36066753 C44.8274896,3.36066753 42.8145742,5.37358297 42.8145742,7.85664 C42.8145742,10.339697 44.8274896,12.3526125 47.3105467,12.3526125 C49.7936037,12.3526125 51.8065191,10.339697 51.8065191,7.85664 C51.8065191,5.37358297 49.7936037,3.36066753 47.3105467,3.36066753 L47.3105467,3.36066753 Z M47.3105467,15.5324467 L47.3105467,15.5324467 C43.0713157,15.5324467 39.63474,12.095871 39.63474,7.85664 C39.63474,3.61740904 43.0713157,0.180833333 47.3105467,0.180833333 C51.5497776,0.180833333 54.9863533,3.61740904 54.9863533,7.85664 C54.9863533,12.095871 51.5497776,15.5324467 47.3105467,15.5324467 L47.3105467,15.5324467 Z" id="Oval"></path>
                    <path d="M90.6443685,76.2133391 L90.6443685,76.2133391 L90.6444524,76.213404 C92.609898,77.734664 95.4347784,77.3742036 96.9541473,75.4108232 C98.4724097,73.4487518 98.113061,70.625464 96.1485276,69.1048827 C94.183082,67.5836226 91.3582016,67.9440831 89.839055,69.9071763 C88.3205108,71.8694909 88.6798539,74.6927723 90.6443685,76.2133391 L90.6443685,76.2133391 Z M98.09454,66.588 C101.44626,69.1822867 102.059853,74.0034067 99.4651533,77.3563667 C96.8704533,80.7093267 92.0499533,81.3243667 88.69844,78.7302867 C85.34672,76.136 84.7331267,71.3150867 87.3278267,67.96192 C89.9225267,64.60896 94.7430267,63.99392 98.09454,66.588 L98.09454,66.588 Z" id="Shape"></path>
                    <path d="M7.85664,73.4012409 L7.85664,73.4012409 C5.37358297,73.4012409 3.36066753,75.4141563 3.36066753,77.8972133 C3.36066753,80.3802704 5.37358297,82.3931858 7.85664,82.3931858 C10.339697,82.3931858 12.3526125,80.3802704 12.3526125,77.8972133 C12.3526125,75.4141563 10.339697,73.4012409 7.85664,73.4012409 L7.85664,73.4012409 Z M7.85664,85.57302 L7.85664,85.57302 C3.61740904,85.57302 0.180833333,82.1364443 0.180833333,77.8972133 C0.180833333,73.6579824 3.61740904,70.2214067 7.85664,70.2214067 C12.095871,70.2214067 15.5324467,73.6579824 15.5324467,77.8972133 C15.5324467,82.1364443 12.095871,85.57302 7.85664,85.57302 L7.85664,85.57302 Z" id="Oval"></path>
                </g>
                <g id="aura" transform="translate(14.053333, 25.833333)" fill="#FFFFFF">
                    <path d="M71.5471733,79.1027 C70.6568533,80.3604733 68.9156867,80.65828 67.6579133,79.7681667 C66.40014,78.8780533 66.1023333,77.13668 66.9924467,75.8791133 C67.8827667,74.62134 69.6239333,74.3233267 70.8817067,75.2136467 C72.1392733,76.10376 72.4372867,77.8451333 71.5471733,79.1027 L71.5471733,79.1027 Z M47.4711267,83.9632933 C46.21356,83.07318 45.9155467,81.3320133 46.8058667,80.07424 C47.69598,78.8164667 49.4371467,78.51866 50.69492,79.4087733 C51.9526933,80.2990933 52.2505,82.04026 51.3603867,83.2980333 C50.4700667,84.5556 48.7289,84.8536133 47.4711267,83.9632933 L47.4711267,83.9632933 Z M25.3983,79.7340667 C24.1405267,78.8437467 23.84272,77.10258 24.7328333,75.8448067 C25.6231533,74.58724 27.36432,74.2892267 28.6220933,75.17934 C29.87966,76.06966 30.1776733,77.8108267 29.2873533,79.0686 C28.39724,80.3263733 26.6560733,80.62418 25.3983,79.7340667 L25.3983,79.7340667 Z" id="Shape" style="mix-blend-mode: soft-light;"></path>
                    <path d="M88.5566667,40.0933333 C87.01576,40.0933333 85.7666667,38.84424 85.7666667,37.3033333 C85.7666667,35.7624267 87.01576,34.5133333 88.5566667,34.5133333 C90.0975733,34.5133333 91.3466667,35.7624267 91.3466667,37.3033333 C91.3466667,38.84424 90.0975733,40.0933333 88.5566667,40.0933333 L88.5566667,40.0933333 Z M80.91,19.6333333 C79.3690933,19.6333333 78.12,18.38424 78.12,16.8433333 C78.12,15.3024267 79.3690933,14.0533333 80.91,14.0533333 C82.4509067,14.0533333 83.7,15.3024267 83.7,16.8433333 C83.7,18.38424 82.4509067,19.6333333 80.91,19.6333333 L80.91,19.6333333 Z M64.17,5.58 C62.6290933,5.58 61.38,4.33090667 61.38,2.79 C61.38,1.24909333 62.6290933,0 64.17,0 C65.7109067,0 66.96,1.24909333 66.96,2.79 C66.96,4.33090667 65.7109067,5.58 64.17,5.58 L64.17,5.58 Z" id="Shape" style="mix-blend-mode: soft-light;"></path>
                    <path d="M24.8295533,6.49677333 C23.4388933,7.16017333 21.77378,6.57076 21.1101733,5.17989333 C20.4467733,3.78923333 21.0361867,2.12391333 22.4270533,1.46051333 C23.8177133,0.797113333 25.4830333,1.38652667 26.1464333,2.77718667 C26.8098333,4.16805333 26.22042,5.83316667 24.8295533,6.49677333 L24.8295533,6.49677333 Z M8.11208,20.0919267 C6.72142,20.7553267 5.0561,20.1659133 4.3927,18.7750467 C3.72909333,17.3843867 4.31871333,15.7190667 5.70937333,15.0556667 C7.10003333,14.3922667 8.76535333,14.98168 9.42896,16.37234 C10.09236,17.7632067 9.50274,19.42832 8.11208,20.0919267 L8.11208,20.0919267 Z M5.49712667,39.64838 C6.16052667,41.0392467 5.57111333,42.70436 4.18024667,43.3679667 C2.78958667,44.0313667 1.12426667,43.4417467 0.460866667,42.0510867 C-0.202533333,40.6604267 0.38688,38.9951067 1.77754,38.3317067 C3.16840667,37.6683067 4.83352,38.25772 5.49712667,39.64838 L5.49712667,39.64838 Z" id="Shape" style="mix-blend-mode: soft-light;"></path>
                </g>
            </g>
            <path d="M39.41,306.935 C44,306.935 46.975,303.62 46.975,298.86 C46.975,294.015 43.83,290.785 39.41,290.785 C35.075,290.785 31.845,294.185 31.845,298.86 C31.845,303.45 34.82,306.935 39.41,306.935 L39.41,306.935 Z M68.905,306 L68.905,281.52 C70.18,281.775 71.71,281.86 73.495,281.86 C83.27,281.86 98.23,277.865 98.23,259.93 C98.23,253.895 95.85,248.625 91.94,245.31 C87.775,241.74 81.57,240.125 73.325,240.125 C66.1,240.125 60.49,240.72 56.41,241.485 L56.41,306 L68.905,306 Z M68.905,250.41 C70.01,250.155 71.795,249.9 74.345,249.9 C81.315,249.9 85.735,253.555 85.735,260.525 C85.735,267.58 81.145,272 73.325,272 C71.455,272 70.095,271.915 68.905,271.66 L68.905,250.41 Z M107.41,305.745 C110.725,306.17 115.57,306.595 121.605,306.595 C132.995,306.595 142.09,303.96 148.04,298.605 C153.055,294.1 157.9,285.94 157.9,271.915 C157.9,260.1 154.245,252.025 148.04,246.925 C142.6,242.42 135.205,240.125 124.325,240.125 C117.95,240.125 112,240.635 107.41,241.485 L107.41,305.745 Z M119.905,250.495 C121.265,250.24 123.22,249.985 125.855,249.985 C137.5,249.985 144.725,257.295 144.725,272.085 C144.725,289.255 136.735,296.65 124.75,296.565 C123.05,296.565 121.18,296.565 119.905,296.31 L119.905,250.495 Z M180,278.715 L200.91,278.715 L200.91,268.43 L180,268.43 L180,251.175 L202.44,251.175 L202.44,240.635 L167.42,240.635 L167.42,306 L180,306 L180,278.715 Z" id=".PDF" fill="#4A4A4A"></path>
            <polyline id="Path-2" stroke="#979797" points="1 50.5 50.5 50.5 50.5 1"></polyline>
        </g>
    </g>
</svg>