<?xml version="1.0" encoding="UTF-8" standalone="no"?>
<!-- Created with Inkscape (http://www.inkscape.org/) -->

<svg
   width="100mm"
   height="100mm"
   viewBox="0 0 100 100"
   version="1.1"
   id="svg14304"
   inkscape:version="1.1 (c68e22c387, 2021-05-23)"
   sodipodi:docname="photos-icon.svg"
   xmlns:inkscape="http://www.inkscape.org/namespaces/inkscape"
   xmlns:sodipodi="http://sodipodi.sourceforge.net/DTD/sodipodi-0.dtd"
   xmlns="http://www.w3.org/2000/svg"
   xmlns:svg="http://www.w3.org/2000/svg">
  <sodipodi:namedview
     id="namedview14306"
     pagecolor="#ffffff"
     bordercolor="#666666"
     borderopacity="1.0"
     inkscape:pageshadow="2"
     inkscape:pageopacity="0.0"
     inkscape:pagecheckerboard="true"
     inkscape:document-units="mm"
     showgrid="false"
     inkscape:zoom="2"
     inkscape:cx="195.75"
     inkscape:cy="205"
     inkscape:window-width="2560"
     inkscape:window-height="1371"
     inkscape:window-x="0"
     inkscape:window-y="0"
     inkscape:window-maximized="1"
     inkscape:current-layer="layer1"
     units="mm" />
  <defs
     id="defs14301" />
  <g
     inkscape:label="Layer 1"
     inkscape:groupmode="layer"
     id="layer1">
    <path
       id="rect14387"
       style="fill:#ffffff;fill-opacity:1;stroke:none;stroke-width:4.68321;stroke-linejoin:miter;stroke-miterlimit:4;stroke-dasharray:none;stroke-opacity:1"
       d="m 35.95031,10.486153 -4.682923,9.912793 H 11.604725 c -3.7388123,0 -8.4368153,4.69964 -8.4368153,8.440689 v 48.84161 c 0,3.741048 4.698003,9.499504 8.4368153,9.499504 h 76.790646 c 3.738813,0 8.436819,-4.700123 8.436819,-8.441171 V 28.839635 c 0,-3.741049 -4.698006,-8.440689 -8.436819,-8.440689 h -19.66266 l -4.682924,-9.912793 z m 14.049738,20.227169 c 12.76255,9.8e-5 23.108617,10.346165 23.108715,23.108715 1.69e-4,12.762739 -10.345976,23.109101 -23.108715,23.109199 -12.762739,-9.9e-5 -23.108883,-10.34646 -23.108714,-23.109199 9.8e-5,-12.76255 10.346164,-23.108616 23.108714,-23.108715 z"
       inkscape:label="body"
       sodipodi:nodetypes="ccccsssssscccccccc" />
    <path
       id="path23562"
       style="display:none;opacity:1;fill:#ffffff;fill-opacity:1;stroke:none;stroke-width:20.1641;stroke-linejoin:miter;stroke-miterlimit:4;stroke-dasharray:none;stroke-opacity:1"
       inkscape:label="lens"
       d="m 50.240079,32.319929 c -0.440896,-0.0058 -0.881619,0.0022 -1.322001,0.02467 -7.096482,0.242966 -13.847439,4.5568 -17.486875,10.459502 -1.544196,2.517318 -2.512666,5.184017 -2.881812,8.143774 -0.963952,7.067355 1.713236,14.839675 7.321379,19.480495 4.406683,3.794562 10.383675,5.62492 16.162817,5.157109 1.945404,-0.159212 4.394012,-0.748231 6.300921,-1.594078 C 64.794551,71.265268 69.74248,65.387686 71.201575,58.502952 72.524368,52.462562 71.00016,45.882067 67.363043,40.996203 63.437477,35.644061 56.853522,32.40769 50.240079,32.319931 Z m -0.244664,4.183251 c 9.838242,0 17.813092,7.955969 17.813092,18.339426 -1.159553,0.0032 -2.318319,0.0056 -3.477365,0.0076 -0.03287,0.933757 -0.157348,1.857775 -0.376932,2.749545 -1.073958,4.608962 -4.586176,8.609445 -9.027163,10.161382 -4.996169,1.940548 -11.002834,0.649801 -14.817515,-3.094264 -2.757761,-2.483297 -4.27238,-6.15405 -4.417634,-9.822147 -1.170141,-7.02e-4 -2.3396,-0.0022 -3.510261,-0.0022 0,-10.617603 7.975539,-18.339426 17.813778,-18.339426 z M 35.691898,54.84466 c 9.551218,0.0047 19.087991,0.02324 28.639244,0.0055 0.09715,-2.757824 -0.609751,-5.60203 -2.062844,-7.960789 -2.542323,-4.339127 -7.559488,-7.051887 -12.510692,-6.905384 -6.455801,0.02495 -12.575782,4.957642 -13.772386,11.338779 -0.244854,1.146638 -0.340348,2.334226 -0.293322,3.52191 z" />
    <path
       id="path29064"
       style="fill:#ffffff;fill-opacity:1;stroke:none;stroke-width:3.65853;stroke-linejoin:miter;stroke-miterlimit:4;stroke-dasharray:none;stroke-opacity:1"
       d="m 35.570312,59.634766 c 1.677735,4.893975 6.351695,8.373347 11.37115,9.23673 5.821816,1.087784 12.369044,-1.071682 15.830022,-6.012121 0.696685,-0.995002 1.268364,-2.08068 1.658204,-3.232422 -9.619792,0.0026 -19.239584,0.0052 -28.859376,0.0078 z" />
  </g>
</svg>
