<?xml version="1.0" encoding="UTF-8" standalone="no"?>
<svg width="170px" height="171px" viewBox="0 0 170 171" version="1.1" xmlns="http://www.w3.org/2000/svg" xmlns:xlink="http://www.w3.org/1999/xlink" xmlns:sketch="http://www.bohemiancoding.com/sketch/ns">
    <!-- Generator: Sketch 3.4.4 (17249) - http://www.bohemiancoding.com/sketch -->
    <title>pictogram-marine</title>
    <desc>Created with Sketch.</desc>
    <defs></defs>
    <g id="Page-1" stroke="none" stroke-width="1" fill="none" fill-rule="evenodd" sketch:type="MSPage">
        <g id="Pictogram:-Veteran" sketch:type="MSArtboardGroup" transform="translate(-15.000000, -15.000000)">
            <rect id="square" fill="#9D9D9D" sketch:type="MSShapeGroup" x="15" y="15" width="170" height="170" rx="6"></rect>
            <path d="M138.5,85.5 L122,113 L123,121.5 L126,121 L125,113.5 C125,113.5 132.5,110.5 136,103.5 C139.5,96.5 140.5,86 140.5,86 L138.5,85.5 Z" id="body-shadow" opacity="0.4" fill="#000000" sketch:type="MSShapeGroup"></path>
            <g id="head" sketch:type="MSLayerGroup" transform="translate(93.000000, 58.000000)">
                <g id="face" transform="translate(6.041004, 10.635863)" sketch:type="MSShapeGroup">
                    <path d="M11.487148,51.6921659 L13.7845776,37.9075883 L22.974296,37.9075883 L25.2717255,51.6921659 L25.2717255,52.8408807 L18.9537942,58.0100973 L11.487148,52.8408807 L11.487148,51.6921659 Z" id="neck" fill="#8B8B8B"></path>
                    <path d="M19.5591979,44.7892176 C36.4018405,44.2622856 40.2050179,26.1743508 40.2050179,16.8618231 C40.2050179,7.54929535 31.2048181,0 20.102509,0 C9.00019983,0 0,7.54929535 0,16.8618231 C0,26.1743508 2.71655526,45.3161496 19.5591979,44.7892176 Z" fill="#8B8B8B"></path>
                    <path d="M24.0089995,44.2141357 L18.9589964,44.8641372 L18.9589964,54.8641372 L25.4589964,52.8641372 L24.0089995,44.2141357 Z M33.4589964,35.3641372 C31.4041356,40.3404739 23.9589964,44.2141357 23.9589964,44.2141357 C23.9589964,44.2141357 28.9815674,43.4211652 33.0590025,38.6641403 C35.9589964,35.3641372 37.9589964,30.8641372 38.9589964,26.8641372 C39.9589964,22.8641372 40.1589934,17.3641372 40.1589934,17.3641372 L35.4589964,16.3641372 C35.4589964,16.3641372 35.2374689,31.0571411 33.4589964,35.3641372 Z" id="face-and-neck-shadow" opacity="0.05" fill="#000000"></path>
                </g>
                <path d="M6.09359183,26.2686091 C6.18529727,28.3900875 6.38666272,32.6243564 6.61536098,34.7588735 C6.87698451,37.2006931 8.33843322,42.2255194 8.33843322,42.2255194 C8.33843322,42.2255194 16.4250982,39.3537324 26.4540406,39.3537324 C35.6028995,39.3537324 42.2452574,41.9720314 43.3405954,42.4315657 C45.5293782,37.2361821 46.2460215,31.5401468 46.2460215,27.4976859 C46.2460215,26.4338927 46.1285773,25.393108 45.9039715,24.3839568 C43.9073966,24.1737418 33.6015561,23.1264247 26.454041,23.1264247 C18.697086,23.1264247 7.952029,24.7052114 6.26712334,24.9602102 C6.18957138,25.3912128 6.13146945,25.8275635 6.09359148,26.2686133 Z" id="shade" opacity="0.6" fill="#000000" sketch:type="MSShapeGroup"></path>
                <path d="M11.2102202,66.9228879 L12.9332924,62.9023861 L17.5281516,62.3280287 C17.5281516,62.3280287 21.1024697,65.1998157 24.4204403,65.1998157 C27.738411,65.1998157 31.3127291,62.3280287 31.3127291,62.3280287 L35.9075883,62.9023861 L35.9075883,66.3485305 L24.4204403,78.9843932 L11.2102202,66.9228879 Z" id="tshirt" fill="#FFFFFF" sketch:type="MSShapeGroup"></path>
                <path d="M16,63 C16,63 19,67.0748801 24.5,67 C30,66.9251199 32.5,63 32.5,63" id="tshirt-rib" stroke="#000000" stroke-linecap="square" opacity="0.1" sketch:type="MSShapeGroup"></path>
                <g id="hat" transform="translate(0.405154, 0.317280)" sketch:type="MSShapeGroup">
                    <path d="M16.7088268,1.83143469 L15.944172,21.3595862 L5.80769367,19.0621566 L5.26790493,1.83143469 L16.7088268,1.83143469 Z" id="left" stroke="#979797" fill="#B1B1B1"></path>
                    <path d="M46.2645418,1.83143469 L45.6908008,19.0621566 L35.5497955,21.3595862 L34.8236199,1.83143469 L46.2645418,1.83143469 Z" id="right" stroke="#979797" fill="#B1B1B1"></path>
                    <path d="M33.8702097,1.83143469 L34.5179206,21.3595862 L16.9760469,21.3595862 L17.662237,1.83143469 L33.8702097,1.83143469 Z" id="front" stroke="#979797" fill="#D8D8D8"></path>
                    <path d="M15.8991923,22.508301 L35.5925117,22.508301 L45.7796728,20.2108714 C45.7796728,20.2108714 51.1116376,27.0191049 50.6400499,28.251875 C46.8859708,27.6775176 42.2112577,24.5686874 26.0648246,24.5686874 C9.91839157,24.5686874 0.730738953,29.4005898 0.840336688,28.251875 C3.30842828,24.2580199 5.71655822,20.2108714 5.71655822,20.2108714 L15.8991923,22.508301 Z" id="brim" stroke="#979797" fill="#C6C6C6"></path>
                    <path d="M26.2658604,24.2313732 C33.7969771,24.2313732 49.4893801,27.2330868 49.4893801,27.2330868 C49.4893801,27.2330868 52.1722728,27.6775176 50.1627781,28.8262324 C39.4329337,26.6587294 33.9706467,25.9544454 26.2676245,25.9544454 C18.3374969,25.9544454 15.2154406,26.5288028 0.911169932,29.185515 C-0.361128485,27.9450578 1.99301306,27.2330868 1.99301306,27.2330868 C1.99301306,27.2330868 18.2668741,24.2313732 26.2658604,24.2313732 Z" id="Rectangle-64" fill="#D8D8D8"></path>
                    <g id="EGA" transform="translate(17.921900, 0.682720)" fill="#000000">
                        <path d="M13.1939542,8.79596946 C14.0036008,8.79596946 14.6599491,8.13962118 14.6599491,7.32997455 C14.6599491,6.52032792 14.0036008,5.86397964 13.1939542,5.86397964 C12.3843076,5.86397964 11.7279593,6.52032792 11.7279593,7.32997455 C11.7279593,8.13962118 12.3843076,8.79596946 13.1939542,8.79596946 Z M13.1939542,8.06297206 C13.5604529,8.06297205 13.9269517,7.69647323 13.9269517,7.32997451 C13.9269517,6.96347579 13.5604529,6.59697709 13.1939542,6.5969771 C12.8274555,6.5969771 12.4609567,6.96347576 12.4609567,7.32997452 C12.4609567,7.69647327 12.8274554,8.06297206 13.1939542,8.06297206 Z" id="Oval-191"></path>
                        <path d="M6.29335943,7.63359199 L2.66520724,11.2617445 L4.22012964,6.5969772 L5.25674452,6.5969772 L5.25674452,5.56036218 L4.7384371,4.00543976 L5.77505203,2.96882483 L5.77505203,4.00543971 L6.29335936,4.52374718 L7.32997454,4.52374718 L7.32997454,3.4871323 L11.9947419,1.93220989 L8.36658919,5.56036214 L9.40320411,7.63359199 L8.3665891,8.67020718 L6.29335943,7.63359199 Z" id="Rectangle-68" transform="translate(7.329975, 6.596977) scale(-1, 1) rotate(-315.000000) translate(-7.329975, -6.596977) "></path>
                        <path d="M10.1730369,8.27766196 L13.2828816,8.27766196 L13.2828816,9.31427697 L10.1730369,9.31427697 L10.1730369,8.27766196 Z" id="Rectangle-68-Copy" transform="translate(11.727959, 8.795969) rotate(-315.000000) translate(-11.727959, -8.795969) "></path>
                        <path d="M3.66498728,10.7620188 C3.20184481,11.4585909 2.93198982,12.2947585 2.93198982,13.1939542 C2.93198982,14.2216558 3.28448737,15.1670271 3.87517278,15.9157586 L2.93198982,16.8589415 C2.93198982,16.8589415 1.46599491,14.6599493 1.46599491,13.9269518 C1.46599491,13.1939542 0.732997455,13.9269518 0.732997455,14.6599492 C0.732997455,15.3929467 1.46599491,17.5919383 2.19899237,18.3249361 C2.93198982,19.0579339 5.13098219,19.7909314 5.86397964,19.7909315 C6.5969771,19.7909315 7.32997455,19.057934 6.5969771,19.0579339 C5.86397964,19.0579339 3.66498728,17.591939 3.66498728,17.591939 L4.60817024,16.648756 C5.35690167,17.2394414 6.302273,17.5919389 7.32997455,17.5919389 C9.75891445,17.5919389 11.7279593,15.6228941 11.7279593,13.1939542 C11.7279593,12.1662526 11.3754617,11.2208813 10.7847763,10.4721498 L12.4609567,8.79596943 L11.7279593,8.06297202 L10.0517789,9.73915241 C9.30304746,9.14846701 8.35767611,8.79596946 7.32997455,8.79596946 C6.38823846,8.79596946 5.51563509,9.09196182 4.80012129,9.59598968 L8.79596946,10.2619644 L8.06297201,11.7279593 L5.86397964,12.4609567 L7.32997455,13.1939542 L8.79596946,12.4609567 L10.2619644,13.1939542 L7.32997455,16.8589415 L6.59697702,14.0083958 L3.66498728,12.2166243 L3.66498728,10.7620188 Z" id="Oval-189"></path>
                    </g>
                </g>
            </g>
            <g id="shirt-(right)" sketch:type="MSLayerGroup" transform="translate(116.000000, 118.000000)">
                <path d="M55.5658476,45 L56,67 L52.5,67 L52.5,45 L55.5658476,45 Z M38,32.5 L35.7112122,67 L31.5,67 L36,33 L38,32.5 Z M34.5,8.5 C34.5,8.5 45,9 48.5,13 C52,17 55.5,34.5 55.5,34.5 C55.5,34.5 57,34.5 57,35.5 C57,36.5 57.5,42.5 57.5,45 C56.5,46.5 54,45.5 54,45.5 L34.5,8.5 Z" id="body-shadow-under" opacity="0.4" fill="#000000" sketch:type="MSShapeGroup"></path>
                <path d="M54.1995119,45 L54.7112122,67 L39,67 L39,45 L54.1995119,45 Z" id="arm" fill="#8B8B8B" sketch:type="MSShapeGroup"></path>
                <path d="M16.6553262,3 C16.6553262,3 45.0000015,9 47.5000015,12.5 C50.0000015,16 55.0000015,36 55.0000015,36 L37.5000015,38 L36.56743,34.5 L33.9554826,66.9999986 L2.29742959,67 L2.29742959,19.7262632 L16.6553262,3 Z" id="shirt" fill="#D8D8D8" sketch:type="MSShapeGroup"></path>
                <path d="M54.1588234,44.6705883 L54.0239708,39.0067841 C54.0107419,38.4511719 53.5537871,38.0461599 53.003356,38.1031011 L40.4966436,39.3968989 C39.9498563,39.4534631 39.4777172,39.9456546 39.4502301,40.4953975 L39,49.4999996 C39,49.4999996 44.4774425,48.2341046 47.4999995,47.9999996 C49.0287171,47.8815965 51.0650986,48.0704967 52.5,48.2490352 L52.5,67 L54.5,67 L54.5,44.5 L54.1588234,44.6705883 Z" id="arm-shadow-over" opacity="0.05" fill="#000000" sketch:type="MSShapeGroup"></path>
                <path d="M36.9717508,37.3638785 C36.9337112,36.8142881 37.3546446,36.3339647 37.8995099,36.2920028 L54.941854,34.9795163 C55.4922808,34.9371261 55.9648984,35.3473953 55.997594,35.8978836 L56.5324195,44.9026024 C56.5650618,45.4521928 56.1423155,45.9325162 55.600541,45.9744781 L38.6548672,47.2869647 C38.1075626,47.3293549 37.6331096,46.9190857 37.5950078,46.3685974 L36.9717508,37.3638785 Z" id="sleeve-roll" fill="#FFFFFF" sketch:type="MSShapeGroup"></path>
                <path d="M10.9127906,10.3384331 C13.6388718,15.5120853 17.8050794,19.5281515 17.8050794,19.5281515 L2.0744439,21.8255811 L0.925729194,1.14871471 L7.81801798,0.57435741 C7.81801798,0.57435741 8.18670936,5.16478089 10.9127906,10.3384331 Z" id="collar" stroke="#979797" fill="#D8D8D8" sketch:type="MSShapeGroup" transform="translate(9.365404, 11.199969) scale(-1, 1) translate(-9.365404, -11.199969) "></path>
                <path d="M11.8018548,12.0615054 L15.0670252,12.7945028 L15.7200593,16.4594901 L13.107923,19.3914799 L12.4548889,15.7264926 L9.18971838,14.9934952 L11.8018548,12.0615054 Z" id="chevron" fill="#000000" sketch:type="MSShapeGroup" transform="translate(12.454889, 15.726493) scale(-1, 1) translate(-12.454889, -15.726493) "></path>
                <path d="M9.29983074,37.4048386 L27.5847854,37.4048386 L27.5847854,52.0647877 L9.29983074,52.0647877 L9.29983074,37.4048386 Z M9.29983074,30.0748641 L27.5847854,30.0748641 L27.5847854,35.9388437 L9.29983074,35.9388437 L9.29983074,30.0748641 Z" id="pocket-copy" stroke="#979797" fill="#D8D8D8" sketch:type="MSShapeGroup" transform="translate(18.442308, 41.069826) rotate(-15.000000) translate(-18.442308, -41.069826) "></path>
                <path d="M36.6000061,35 L36.5500031,33.5 C36.5500031,33.5 33.3206823,49.6563585 31.5,56 C30.1540156,60.6896939 27,67 27,67 L34,67 L36.6000061,35 Z M48,13.5 C47.5,11 40,9.19999695 40,9.19999695 C40,9.19999695 48.3206823,26.6563585 46.5,33 C45.6997786,35.7881403 36.6499939,34 36.6499939,34 C36.6499939,34 37,36.5 37,37 C37,37 37,36.5 38,36.25 C38,36.25 54.6000061,35 54.6000061,35 C54.6000061,35 50.6470928,18.177738 48,13.5 Z" id="shirt-shadow-over" opacity="0.05" fill="#000000" sketch:type="MSShapeGroup"></path>
            </g>
            <g id="shirt-(left)" sketch:type="MSLayerGroup" transform="translate(28.000000, 82.000000)">
                <path d="M57,66.5 L2,60 C2,60 1.5,64 8.50000023,66 C10.9049206,66.6871201 23.5022912,67.4277707 34.3359704,68.2788594 C35.0958046,68.3385516 36.6388055,69.3670574 38.5000017,69.5 C45.5000017,70 57,70 57,70 L57,66.5 Z M18,50 L21,51.5 L49,20 L71.5,10 L71.5,7 L48,17.5 L18,50 Z" id="body-shadow-under" opacity="0.4" fill="#000000" sketch:type="MSShapeGroup"></path>
                <path d="M45.0000012,20.5 C45.0000012,20.5 49.0000012,16.5 51.5000012,14.5 C54.0000012,12.5 74.4999974,2 76.4999974,1 C78.4999974,2.62754374e-09 78.4999974,2.5 78.4999974,2.5 L19.8699426,50.227267 L39.9954202,48.4834974 L39.9954197,67.1603047 C39.9954197,67.1603047 10.9127905,65.1793141 5.74357398,64.0305993 C0.574357403,62.8818845 0.574357391,57.1383105 0.574357391,57.1383105 C0.574357391,57.1383105 -2.32421256,52.4242474 12.6358632,38.1845164 C23,29.5 45.0000012,20.5 45.0000012,20.5 Z" id="arm" fill="#8B8B8B" sketch:type="MSShapeGroup"></path>
                <path d="M56.2821821,68.6250503 L57.825325,103.07718 L89.5997547,103.077179 L89.5997547,56.5639529 L72.8129677,38.1845161 L55.1002991,42.2383912 L42.1564264,46.7998771 L42.1564264,67.4767435 L56.2821821,68.6250503 Z" id="blouse" fill="#D8D8D8" sketch:type="MSShapeGroup"></path>
                <path d="M36,48.3781893 C36,47.825675 36.431213,47.2651962 36.9761766,47.1229217 L46.0238234,44.7608387 C46.5629509,44.6200878 47,44.9465554 47,45.5147323 L46.9999998,67.6903302 C46.9999998,68.247445 46.5551628,68.6756371 46.0044223,68.6466184 L36.9955775,68.1719392 C36.4457352,68.1429678 36,67.6669721 36,67.1190661 L36,48.3781893 Z" id="sleeve-roll" fill="#FFFFFF" sketch:type="MSShapeGroup"></path>
                <path d="M82.7074655,47.3742344 C85.7356136,52.3302866 90.1741117,55.9895954 90.1741117,55.9895954 L74.6664619,58.287025 L72.9433897,38.1845161 L78.9442747,37.6101586 C78.9442747,37.6101586 79.6793173,42.4181822 82.7074655,47.3742344 Z" id="collar" stroke="#979797" fill="#D8D8D8" sketch:type="MSShapeGroup"></path>
                <path d="M78.5402025,48.5229493 L81.9464848,49.2559468 L82.6277412,52.920934 L79.9027154,55.8529239 L79.2214589,52.1879366 L75.8151766,51.4549391 L78.5402025,48.5229493 Z" id="chevron" fill="#000000" sketch:type="MSShapeGroup"></path>
                <path d="M63.2753766,73.8776874 L82.3505575,73.8776874 L82.3505575,88.5376365 L63.2753766,88.5376365 L63.2753766,73.8776874 Z M63.2753766,66.5477129 L82.3505575,66.5477129 L82.3505575,72.4116925 L63.2753766,72.4116925 L63.2753766,66.5477129 Z" id="pocket" stroke="#979797" fill="#D8D8D8" sketch:type="MSShapeGroup" transform="translate(72.812967, 77.542675) rotate(15.000000) translate(-72.812967, -77.542675) "></path>
                <path d="M47,61.5309462 C50,63.8273655 56,61.5309462 56,61.5309462 L56.1999969,68.5733082 L47,67.8500061 C47,67.8500061 47,61.5309462 47,61.5309462 Z M36,66.8892579 C36,65.3583117 36,60 36,60 C36,60 39.8687432,61.2812096 41.5,61.5309462 C43.2020766,61.791525 47,61.5309462 47,61.5309462 C47,61.5309462 47.0000002,65.9690538 47,67.5 C47,68.6999969 45.9999998,68.6498368 45.9999998,68.6498368 L37,68.1999969 C37,68.1999969 36,68 36,66.8892579 Z" id="shirt-shadow-over" opacity="0.05" fill="#000000" sketch:type="MSShapeGroup"></path>
                <path d="M0.500000113,57.5000002 C12.4999996,62.5000002 18.2500001,63.0000002 34.5000001,63.0000002 C35.5,58.5 35.9999997,49.0000002 35.9999997,49.0000002 L35.9999997,66.8999939 C35.9999997,66.8999939 24.0000001,66.0000002 19.0000001,65.5000002 C14.0000001,65.1999969 5.99999951,64.1000061 5.99999951,64.1000061 C5.99999951,64.1000061 1.49999995,63.8000031 0.500000113,57.5000002 Z M77.5000004,2.00000001 C78.5000004,0.499999995 78.5000004,2.49999998 78.5000004,2.49999998 L20.0000001,50.0000002 C20.0000001,50.0000002 20.5,50.5000002 15.5,50.0000002 C13.5,48.5000002 38.0000009,31.5000003 48.5000004,23.5000005 C59.0000004,18.0000005 76.5000004,3.50000002 77.5000004,2.00000001 Z" id="arm-shadow-over" opacity="0.05" fill="#000000" sketch:type="MSShapeGroup"></path>
            </g>
        </g>
    </g>
</svg>