<?xml version="1.0" encoding="UTF-8" standalone="no"?>
<svg width="170px" height="170px" viewBox="0 0 170 170" version="1.1" xmlns="http://www.w3.org/2000/svg" xmlns:xlink="http://www.w3.org/1999/xlink" xmlns:sketch="http://www.bohemiancoding.com/sketch/ns">
    <!-- Generator: Sketch 3.4.4 (17249) - http://www.bohemiancoding.com/sketch -->
    <title>pictogram-dad-husband</title>
    <desc>Created with Sketch.</desc>
    <defs></defs>
    <g id="Page-1" stroke="none" stroke-width="1" fill="none" fill-rule="evenodd" sketch:type="MSPage">
        <g id="Pictogram:-Father-and-Husband" sketch:type="MSArtboardGroup" transform="translate(-15.000000, -15.000000)">
            <rect id="square" fill="#9D9D9D" sketch:type="MSShapeGroup" x="15" y="15" width="170" height="170" rx="6"></rect>
            <g id="rings" sketch:type="MSLayerGroup" transform="translate(96.000000, 15.000000)">
                <g id="ring" transform="translate(0.000000, 88.000000)" sketch:type="MSShapeGroup">
                    <path d="M31,37 C48.2675659,37 62,30.3452817 62,18.5 C62,6.65471826 48.2675659,0 31,0 C13.7324341,0 0,6.65471826 0,18.5 C0,30.3452817 13.7324341,37 31,37 L31,37 Z M31,27.2631579 C23.6892791,27.2631579 16.863109,25.864012 11.8978995,23.4578785 C9.60117045,22.3448868 7.81560431,21.0640996 6.68765459,19.7717853 C6.23343349,19.2513752 5.93017429,18.7788874 5.77546214,18.412502 C5.72954179,18.3037546 5.74074074,18.3571933 5.74074074,18.5 C5.74074074,18.6428067 5.72954179,18.6962454 5.77546214,18.587498 C5.93017429,18.2211126 6.23343349,17.7486248 6.68765459,17.2282147 C7.81560431,15.9359004 9.60117045,14.6551132 11.8978995,13.5421215 C16.863109,11.135988 23.6892791,9.73684211 31,9.73684211 C38.3107209,9.73684211 45.136891,11.135988 50.1021005,13.5421215 C52.3988295,14.6551132 54.1843957,15.9359004 55.3123454,17.2282147 C55.7665665,17.7486248 56.0698257,18.2211126 56.2245379,18.587498 C56.2704582,18.6962454 56.2592593,18.6428067 56.2592593,18.5 C56.2592593,18.3571933 56.2704582,18.3037546 56.2245379,18.412502 C56.0698257,18.7788874 55.7665665,19.2513752 55.3123454,19.7717853 C54.1843957,21.0640996 52.3988295,22.3448868 50.1021005,23.4578785 C45.136891,25.864012 38.3107209,27.2631579 31,27.2631579 L31,27.2631579 Z" id="outside" fill="#FFFFFF"></path>
                    <path d="M43.7575541,1.36643872 C39.8771346,0.464479116 35.561938,0 31,0 C26.438062,0 22.1228654,0.464479116 18.2424459,1.36643872 C9.07846182,3.57707079 4.01851852,8.23859442 4.01851852,13.6315789 C4.01851852,21.1600921 16.0740741,27.2631579 31,27.2631579 C45.9259259,27.2631579 57.9814815,21.1600921 57.9814815,13.6315789 C57.9814815,8.23859442 52.9215382,3.57707079 43.7575541,1.36643872 Z M31,27.2631579 C23.6892791,27.2631579 16.863109,25.864012 11.8978995,23.4578785 C9.60117045,22.3448868 7.81560431,21.0640996 6.68765459,19.7717853 C6.23343349,19.2513752 5.93017429,18.7788874 5.77546214,18.412502 C5.72954179,18.3037546 5.74074074,18.3571933 5.74074074,18.5 C5.74074074,18.6428067 5.72954179,18.6962454 5.77546214,18.587498 C5.93017429,18.2211126 6.23343349,17.7486248 6.68765459,17.2282147 C7.81560431,15.9359004 9.60117045,14.6551132 11.8978995,13.5421215 C16.863109,11.135988 23.6892791,9.73684211 31,9.73684211 C38.3107209,9.73684211 45.136891,11.135988 50.1021005,13.5421215 C52.3988295,14.6551132 54.1843957,15.9359004 55.3123454,17.2282147 C55.7665665,17.7486248 56.0698257,18.2211126 56.2245379,18.587498 C56.2704582,18.6962454 56.2592593,18.6428067 56.2592593,18.5 C56.2592593,18.3571933 56.2704582,18.3037546 56.2245379,18.412502 C56.0698257,18.7788874 55.7665665,19.2513752 55.3123454,19.7717853 C54.1843957,21.0640996 52.3988295,22.3448868 50.1021005,23.4578785 C45.136891,25.864012 38.3107209,27.2631579 31,27.2631579 L31,27.2631579 Z" id="inside" fill="#D7D7D7"></path>
                </g>
                <g id="ring-upper" transform="translate(52.471643, 107.113126) rotate(18.000000) translate(-52.471643, -107.113126) translate(19.971643, 88.113126)" sketch:type="MSShapeGroup">
                    <path d="M33.796587,37.7744463 C51.0641529,37.7744463 64.796587,31.119728 64.796587,19.2744463 C64.796587,7.42916456 51.0641529,0.774446298 33.796587,0.774446298 C16.5290211,0.774446298 2.796587,7.42916456 2.796587,19.2744463 C2.796587,31.119728 16.5290211,37.7744463 33.796587,37.7744463 L33.796587,37.7744463 Z M14.6944865,24.2323248 C12.3977574,23.1193331 10.6121913,21.8385459 9.48424159,20.5462316 C9.03002049,20.0258215 8.72676129,19.5533336 8.57204913,19.1869483 C8.52612878,19.0782009 8.53732774,19.1316396 8.53732774,19.2744463 C8.53732774,19.417253 8.52612878,19.4706917 8.57204913,19.3619443 C8.72676129,18.9955589 9.03002049,18.5230711 9.48424159,18.002661 C10.6121913,16.7103467 12.3977574,15.4295595 14.6944865,14.3165678 C19.659696,11.9104343 26.4858661,10.5112884 33.796587,10.5112884 C41.1073079,10.5112884 47.933478,11.9104343 52.8986875,14.3165678 C55.1954165,15.4295595 56.9809827,16.7103467 58.1089324,18.002661 C58.5631535,18.5230711 58.8664127,18.9955589 59.0211249,19.3619443 C59.0670452,19.4706917 59.0558463,19.417253 59.0558463,19.2744463 C59.0558463,19.1316396 59.0670452,19.0782009 59.0211249,19.1869483 C58.8664127,19.5533336 58.5631535,20.0258215 58.1089324,20.5462316 C56.9809827,21.8385459 55.1954165,23.1193331 52.8986875,24.2323248 C47.933478,26.6384583 41.1073079,28.0376042 33.796587,28.0376042 C26.4858661,28.0376042 19.659696,26.6384583 14.6944865,24.2323248 Z" id="shadow" fill-opacity="0.200000018" fill="#000000"></path>
                    <path d="M31,37 C48.2675659,37 62,30.3452817 62,18.5 C62,6.65471826 48.2675659,-2.84217094e-13 31,-2.84217094e-13 C13.7324341,-2.84217094e-13 -7.81597009e-14,6.65471826 -7.81597009e-14,18.5 C-7.81597009e-14,30.3452817 13.7324341,37 31,37 L31,37 Z M31,27.2631579 C23.6892791,27.2631579 16.863109,25.864012 11.8978995,23.4578785 C9.60117045,22.3448868 7.81560431,21.0640996 6.68765459,19.7717853 C6.23343349,19.2513752 5.93017429,18.7788874 5.77546214,18.412502 C5.72954179,18.3037546 5.74074074,18.3571933 5.74074074,18.5 C5.74074074,18.6428067 5.72954179,18.6962454 5.77546214,18.587498 C5.93017429,18.2211126 6.23343349,17.7486248 6.68765459,17.2282147 C7.81560431,15.9359004 9.60117045,14.6551132 11.8978995,13.5421215 C16.863109,11.135988 23.6892791,9.73684211 31,9.73684211 C38.3107209,9.73684211 45.136891,11.135988 50.1021005,13.5421215 C52.3988295,14.6551132 54.1843957,15.9359004 55.3123454,17.2282147 C55.7665665,17.7486248 56.0698257,18.2211126 56.2245379,18.587498 C56.2704582,18.6962454 56.2592593,18.6428067 56.2592593,18.5 C56.2592593,18.3571933 56.2704582,18.3037546 56.2245379,18.412502 C56.0698257,18.7788874 55.7665665,19.2513752 55.3123454,19.7717853 C54.1843957,21.0640996 52.3988295,22.3448868 50.1021005,23.4578785 C45.136891,25.864012 38.3107209,27.2631579 31,27.2631579 L31,27.2631579 Z" id="outside" fill="#FFFFFF"></path>
                    <path d="M43.7575541,1.36643872 C39.8771346,0.464479116 35.561938,-8.24229573e-13 31,-8.24229573e-13 C26.438062,-8.24229573e-13 22.1228654,0.464479116 18.2424459,1.36643872 C9.07846182,3.57707079 4.01851852,8.23859442 4.01851852,13.6315789 C4.01851852,21.1600921 16.0740741,27.2631579 31,27.2631579 C45.9259259,27.2631579 57.9814815,21.1600921 57.9814815,13.6315789 C57.9814815,8.23859442 52.9215382,3.57707079 43.7575541,1.36643872 Z M31,27.2631579 C23.6892791,27.2631579 16.863109,25.864012 11.8978995,23.4578785 C9.60117045,22.3448868 7.81560431,21.0640996 6.68765459,19.7717853 C6.23343349,19.2513752 5.93017429,18.7788874 5.77546214,18.412502 C5.72954179,18.3037546 5.74074074,18.3571933 5.74074074,18.5 C5.74074074,18.6428067 5.72954179,18.6962454 5.77546214,18.587498 C5.93017429,18.2211126 6.23343349,17.7486248 6.68765459,17.2282147 C7.81560431,15.9359004 9.60117045,14.6551132 11.8978995,13.5421215 C16.863109,11.135988 23.6892791,9.73684211 31,9.73684211 C38.3107209,9.73684211 45.136891,11.135988 50.1021005,13.5421215 C52.3988295,14.6551132 54.1843957,15.9359004 55.3123454,17.2282147 C55.7665665,17.7486248 56.0698257,18.2211126 56.2245379,18.587498 C56.2704582,18.6962454 56.2592593,18.6428067 56.2592593,18.5 C56.2592593,18.3571933 56.2704582,18.3037546 56.2245379,18.412502 C56.0698257,18.7788874 55.7665665,19.2513752 55.3123454,19.7717853 C54.1843957,21.0640996 52.3988295,22.3448868 50.1021005,23.4578785 C45.136891,25.864012 38.3107209,27.2631579 31,27.2631579 L31,27.2631579 Z" id="inside" fill="#D7D7D7"></path>
                </g>
            </g>
            <g id="pacifier" sketch:type="MSLayerGroup" transform="translate(78.300815, 62.431281) rotate(-345.000000) translate(-78.300815, -62.431281) translate(20.800815, 27.931281)">
                <path d="M57.3910862,61.8258537 C88.8231759,61.8258537 114.303921,45.0698046 114.303921,30.7824911 C114.303921,22.1932397 114.435585,5.92248096 100.260493,1.2173831 C90.8568144,-1.90395292 69.926825,4.91302161 57.3910884,4.91302161 C45.5825998,4.91302161 22.8756229,-0.842156108 13.782554,1.9565108 C-1.32850414,6.60739589 0.478255402,21.8626724 0.478255402,30.7824911 C0.478255402,45.0698046 25.9589964,61.8258537 57.3910862,61.8258537 Z M86.9561964,24.1303418 C90.630077,24.1303418 93.6083457,21.1520731 93.6083457,17.4781925 C93.6083457,13.8043119 90.630077,10.8260432 86.9561964,10.8260432 C83.2823158,10.8260432 80.3040471,13.8043119 80.3040471,17.4781925 C80.3040471,21.1520731 83.2823158,24.1303418 86.9561964,24.1303418 Z M27.8259803,24.1303418 C31.4998609,24.1303418 34.4781296,21.1520731 34.4781296,17.4781925 C34.4781296,13.8043119 31.4998609,10.8260432 27.8259803,10.8260432 C24.1520997,10.8260432 21.173831,13.8043119 21.173831,17.4781925 C21.173831,21.1520731 24.1520997,24.1303418 27.8259803,24.1303418 Z" id="shield" stroke="#979797" fill="#D8D8D8" sketch:type="MSShapeGroup"></path>
                <path d="M57.0444334,68.1898916 C72.5563737,68.1898916 81.8883209,61.1713998 85.131286,51.1899544 C86.6095414,46.6400672 86.815847,39.9942007 83.6530298,37.8856559 C77.0008805,33.4508896 65.6405451,32.7117619 57.0444334,32.7117619 C47.25659,32.7117619 35.4636743,32.8909111 30.435836,37.8856558 C27.4954708,40.8066674 27.4793253,47.4943153 28.218453,51.1899538 C30.2431444,61.3134106 41.532493,68.1898916 57.0444334,68.1898916 Z M57.7835611,61.5377436 C65.9139658,61.5377436 77.7400098,59.3203591 79.2182644,51.1899544 C79.8276203,47.8384953 80.1966583,41.7654087 77.0008813,39.3639112 C72.9335005,36.3074387 63.9023648,37.3313101 57.0444334,37.3313101 C48.3680473,37.3313101 37.0879854,37.3313101 35.60973,40.1030389 C34.1314746,42.8747678 34.2100376,48.988072 34.8706023,51.1899544 C37.0879854,58.5812314 49.6531564,61.5377436 57.7835611,61.5377436 Z" id="handle-shadow" fill-opacity="0.25999999" fill="#000000" sketch:type="MSShapeGroup"></path>
                <path d="M56.6519607,66.9997485 C72.163901,66.9997485 81.4958482,59.9812567 84.7388133,49.9998114 C86.2170687,45.4499241 86.4233744,38.8040577 83.2605571,36.6955128 C76.6084078,32.2607465 65.2480724,31.5216188 56.6519607,31.5216188 C46.8641174,31.5216188 35.0712016,31.700768 30.0433634,36.6955127 C27.1029981,39.6165244 27.0868526,46.3041722 27.8259803,49.9998107 C29.8506717,60.1232675 41.1400203,66.9997485 56.6519607,66.9997485 Z M57.3910884,60.3476005 C65.5214931,60.3476005 77.3475371,58.130216 78.8257917,49.9998114 C79.4351476,46.6483522 79.8041856,40.5752656 76.6084086,38.1737681 C72.5410278,35.1172956 63.5098921,36.141167 56.6519607,36.141167 C47.9755746,36.141167 36.6955127,36.141167 35.2172573,38.9128958 C33.7390019,41.6846247 33.8175649,47.7979289 34.4781296,49.9998114 C36.6955127,57.3910883 49.2606837,60.3476005 57.3910884,60.3476005 Z" id="handle" fill="#FFFFFF" sketch:type="MSShapeGroup"></path>
                <ellipse id="shield-plate-shadow" fill-opacity="0.249999985" fill="#000000" sketch:type="MSShapeGroup" cx="58.322644" cy="37.3924777" rx="20.6955756" ry="20.6955756"></ellipse>
                <ellipse id="shield-plate" fill="#C8C8C8" sketch:type="MSShapeGroup" cx="56.6519607" cy="34.4781296" rx="20.6955756" ry="20.6955756"></ellipse>
            </g>
            <g id="lego-brick" sketch:type="MSLayerGroup" transform="translate(20.000000, 127.000000)">
                <path d="M0,14.5 L63.5,0 L80,20 L13,37.5 L0,14.5 Z M80,20.5 L13,38 L13,54 L80,36.5 L80,20.5 Z" id="face" fill="#FFFFFF" sketch:type="MSShapeGroup"></path>
                <path d="M0,15.5 L12.5,38 L12.5,54 L0,33 L0,15.5 Z" id="side" fill="#C8C8C8" sketch:type="MSShapeGroup"></path>
                <g id="lego-stud" transform="translate(8.000000, 12.000000)" fill="#C9C9C9" sketch:type="MSShapeGroup">
                    <path d="M5.5,9.5 C8.5,9.5 11,8 11,7 L11,5 C11,5 9,7 5.5,7 C2,7 0,5 0,5 L0,7 C1.34711148e-16,8 2.5,9.5 5.5,9.5 Z M5.5,6 C8.53756612,6 11,4.65685425 11,3 C11,1.34314575 8.53756612,0 5.5,0 C2.46243388,0 0,1.34314575 0,3 C0,4.65685425 2.46243388,6 5.5,6 Z" id="Oval-160-Copy-3"></path>
                </g>
                <g id="lego-stud" transform="translate(15.000000, 22.000000)" fill="#C9C9C9" sketch:type="MSShapeGroup">
                    <path d="M5.5,9.5 C8.5,9.5 11,8 11,7 L11,5 C11,5 9,7 5.5,7 C2,7 0,5 0,5 L0,7 C1.34711148e-16,8 2.5,9.5 5.5,9.5 Z M5.5,6 C8.53756612,6 11,4.65685425 11,3 C11,1.34314575 8.53756612,0 5.5,0 C2.46243388,0 0,1.34314575 0,3 C0,4.65685425 2.46243388,6 5.5,6 Z" id="Oval-160-Copy-3"></path>
                </g>
                <g id="lego-stud" transform="translate(23.000000, 8.000000)" fill="#C9C9C9" sketch:type="MSShapeGroup">
                    <path d="M5.5,9.5 C8.5,9.5 11,8 11,7 L11,5 C11,5 9,7 5.5,7 C2,7 0,5 0,5 L0,7 C1.34711148e-16,8 2.5,9.5 5.5,9.5 Z M5.5,6 C8.53756612,6 11,4.65685425 11,3 C11,1.34314575 8.53756612,0 5.5,0 C2.46243388,0 0,1.34314575 0,3 C0,4.65685425 2.46243388,6 5.5,6 Z" id="Oval-160-Copy-3"></path>
                </g>
                <g id="lego-stud" transform="translate(30.000000, 18.000000)" fill="#C9C9C9" sketch:type="MSShapeGroup">
                    <path d="M5.5,9.5 C8.5,9.5 11,8 11,7 L11,5 C11,5 9,7 5.5,7 C2,7 0,5 0,5 L0,7 C1.34711148e-16,8 2.5,9.5 5.5,9.5 Z M5.5,6 C8.53756612,6 11,4.65685425 11,3 C11,1.34314575 8.53756612,0 5.5,0 C2.46243388,0 0,1.34314575 0,3 C0,4.65685425 2.46243388,6 5.5,6 Z" id="Oval-160-Copy-3"></path>
                </g>
                <g id="lego-stud" transform="translate(38.000000, 4.000000)" fill="#C9C9C9" sketch:type="MSShapeGroup">
                    <path d="M5.5,9.5 C8.5,9.5 11,8 11,7 L11,5 C11,5 9,7 5.5,7 C2,7 0,5 0,5 L0,7 C1.34711148e-16,8 2.5,9.5 5.5,9.5 Z M5.5,6 C8.53756612,6 11,4.65685425 11,3 C11,1.34314575 8.53756612,0 5.5,0 C2.46243388,0 0,1.34314575 0,3 C0,4.65685425 2.46243388,6 5.5,6 Z" id="Oval-160-Copy-3"></path>
                </g>
                <g id="lego-stud" transform="translate(45.000000, 14.000000)" fill="#C9C9C9" sketch:type="MSShapeGroup">
                    <path d="M5.5,9.5 C8.5,9.5 11,8 11,7 L11,5 C11,5 9,7 5.5,7 C2,7 0,5 0,5 L0,7 C1.34711148e-16,8 2.5,9.5 5.5,9.5 Z M5.5,6 C8.53756612,6 11,4.65685425 11,3 C11,1.34314575 8.53756612,0 5.5,0 C2.46243388,0 0,1.34314575 0,3 C0,4.65685425 2.46243388,6 5.5,6 Z" id="Oval-160-Copy-3"></path>
                </g>
                <g id="lego-stud" transform="translate(53.000000, 1.000000)" fill="#C9C9C9" sketch:type="MSShapeGroup">
                    <path d="M5.5,9.5 C8.5,9.5 11,8 11,7 L11,5 C11,5 9,7 5.5,7 C2,7 0,5 0,5 L0,7 C1.34711148e-16,8 2.5,9.5 5.5,9.5 Z M5.5,6 C8.53756612,6 11,4.65685425 11,3 C11,1.34314575 8.53756612,0 5.5,0 C2.46243388,0 0,1.34314575 0,3 C0,4.65685425 2.46243388,6 5.5,6 Z" id="Oval-160-Copy-3"></path>
                </g>
                <g id="lego-stud" transform="translate(60.000000, 11.000000)" fill="#C9C9C9" sketch:type="MSShapeGroup">
                    <path d="M5.5,9.5 C8.5,9.5 11,8 11,7 L11,5 C11,5 9,7 5.5,7 C2,7 0,5 0,5 L0,7 C1.34711148e-16,8 2.5,9.5 5.5,9.5 Z M5.5,6 C8.53756612,6 11,4.65685425 11,3 C11,1.34314575 8.53756612,0 5.5,0 C2.46243388,0 0,1.34314575 0,3 C0,4.65685425 2.46243388,6 5.5,6 Z" id="Oval-160-Copy-3"></path>
                </g>
            </g>
        </g>
    </g>
</svg>