<?xml version="1.0" encoding="UTF-8" standalone="no"?>
<svg width="238px" height="316px" viewBox="0 0 238 316" version="1.1" xmlns="http://www.w3.org/2000/svg" xmlns:xlink="http://www.w3.org/1999/xlink">
    <!-- Generator: Sketch 3.8.2 (29753) - http://www.bohemiancoding.com/sketch -->
    <title>robot</title>
    <desc>Created with Sketch.</desc>
    <defs></defs>
    <g id="Page-1" stroke="none" stroke-width="1" fill="none" fill-rule="evenodd">
        <g id="robot" fill="#000000">
            <path d="M185.916,291.648695 C185.972701,291.686513 186.027946,291.725459 186.081705,291.765565 C186.096472,294.033229 186.487683,296.178083 187.087173,298.142598 C187.083588,298.291214 187.081653,298.439333 187.081323,298.58694 C175.502235,299.077595 141.128578,300.408 108.839,300.408 C85.210552,300.408 62.6979076,299.45228 51.049509,298.862169 C52.9283184,297.263434 54.244618,295.393856 55.1513332,293.436003 C72.3891076,294.553435 185.916,293.168 185.916,293.168 L185.916,291.648695 Z M185.916,252.672516 C188.083593,252.646118 190.023389,252.602616 191.700018,252.540042 C191.865427,221.466183 191.573956,185.093672 189.407,179.64 C185.605,170.073 51.217,174.042 44.557,179.64 C40.8990862,182.714625 40.7328929,218.239475 41.326309,249.641374 C41.6447694,249.820027 41.815,249.924 41.815,249.924 L49.2923581,249.08766 C49.1893726,246.496063 49.074428,243.864475 48.942,241.215 C47.626,214.869 49.793,188.373 49.793,188.373 C49.793,188.373 87.169,186.252 121.972,187.591 C155.194,188.87 185.916,193.613 185.916,193.613 L185.916,252.672516 Z" id="body"></path>
            <path d="M67.3051588,270.527746 C71.5883488,270.697694 76.6689713,270.884771 82.3342068,271.066703 L80.3854965,254.015488 C74.7239223,253.798334 69.6295202,253.596486 65.3504158,253.423745 L67.3051588,270.527746 Z M62.2488924,270.320202 C56.3074874,270.067927 52.842,269.89 52.842,269.89 L46.136,270.31 C46.136,270.31 52.382,292.438 30.992,296.245 C33.107,263.592 21.408,259.821 7.272,257.933 C18.687,239.798 41.815,253.924 41.815,253.924 L51.444,252.847 C51.444,252.847 54.7196729,252.988718 60.2943349,253.217824 L62.2488924,270.320202 Z M87.3845626,271.222529 C91.3778983,271.340691 95.6041139,271.453698 100,271.554933 L100,254.74099 C94.9284268,254.560699 90.0373104,254.380811 85.4400028,254.207631 L87.3845626,271.222529 Z M105,271.663233 C108.724398,271.738733 112.548209,271.804535 116.435929,271.856923 L118.496824,255.369761 C113.940268,255.22257 109.417845,255.070261 105,254.916751 L105,271.663233 Z M121.46738,271.916601 C125.932863,271.962216 130.461019,271.988515 135,271.990072 L135,255.87287 C131.19381,255.764504 127.351872,255.649211 123.515793,255.529303 L121.46738,271.916601 Z M140,271.981517 C143.76712,271.967129 147.528592,271.934335 151.254792,271.880032 L148.731435,256.235213 C145.867448,256.166324 142.950305,256.091447 140,256.011695 L140,271.981517 Z M156.30529,271.792482 C161.26497,271.692334 166.136544,271.550744 170.847975,271.360173 L166.416224,256.587669 C162.428088,256.528494 158.20184,256.448598 153.814937,256.352289 L156.30529,271.792482 Z M175.998661,271.128615 C180.990927,270.880513 185.761634,270.570995 190.217689,270.190315 L182.572734,256.699219 C179.300563,256.713121 175.631254,256.696568 171.656474,256.654658 L175.998661,271.128615 Z M195.670424,269.67106 C202.360092,268.962283 208.141174,268.060247 212.630616,266.924858 L197.103946,254.725332 C195.96381,255.396345 194.57422,255.991737 192.897,256.49 C191.556374,256.552638 190.010759,256.600531 188.283305,256.634968 L195.670424,269.67106 Z M218.334569,265.047787 C220.531319,264.07328 221.98662,262.972078 222.565,261.73 C223.775975,259.129391 224.134132,255.803792 223.849996,252 L201.728294,252 L218.334569,265.047787 Z M223.17288,247 C222.37992,242.792607 221.019997,238.201588 219.310866,233.48222 L201.605391,246.303426 C201.629644,246.535976 201.646346,246.768277 201.654912,247 L223.17288,247 Z M217.460876,228.648587 C215.779136,224.466212 213.886301,220.251785 211.928506,216.176621 L196.534204,235.637342 C197.639489,237.056092 199.018717,239.038088 200.068233,241.24326 L217.460876,228.648587 Z M209.480465,211.212038 C202.093176,196.593998 194.642,184.88 194.642,184.88 L194.642,229.970098 L209.480465,211.212038 Z" id="arm-right"></path>
            <path d="M220.82,156.935 C211.314,167.97 15.278,165.153 9.653,156.935 C4.029,148.717 -2.767,21.449 11.399,13.715 C25.565,5.982 218.942,-0.81 227.801,8.476 C236.659,17.761 230.326,145.899 220.82,156.935 L220.82,156.935 Z M222.565,11.969 C222.565,11.969 151.066,10.668 92.778,12.596 C47.013,14.11 11.399,18.955 11.399,18.955 L11.399,121.007 C11.399,139.703 14.889,151.695 14.889,151.695 L215.584,153.442 C215.584,153.442 220.135,131.959 221.429,105.737 C223.455,64.667 222.565,11.969 222.565,11.969 L222.565,11.969 Z" id="head"></path>
            <path d="M152.5,51 C142.283,51 134,50.105 134,49 C134,47.895 142.283,47 152.5,47 C162.717,47 171,47.895 171,49 C171,50.105 162.717,51 152.5,51 L152.5,51 Z M83,96 C78.582,96 75,88.165 75,78.5 C75,68.835 78.582,61 83,61 C87.418,61 91,68.835 91,78.5 C91,88.165 87.418,96 83,96 L83,96 Z M153,61 C157.418,61 161,68.835 161,78.5 C161,88.165 157.418,96 153,96 C148.582,96 145,88.165 145,78.5 C145,68.835 148.582,61 153,61 L153,61 Z" id="Shape"></path>
            <path d="M173.437386,286.617915 C171.827316,286.667517 170.18465,286.696077 168.573,286.64 C168.067563,286.622415 167.157212,286.575749 165.88665,286.501733 L168.009499,276.312054 C171.042244,276.18342 174.005381,276.033995 176.879364,275.861735 L173.437386,286.617915 Z M178.737582,286.46031 C183.989972,286.407622 187.864712,287.030833 187.353,291.338 C185.377,303.183 194.826,312.676 194.826,312.676 C196.83,288.28 201.583,277.509 232.319,294.202 C232.319,294.202 232.748,285.249 224.995,277.595 C220.860211,273.513536 215.994925,271.662807 212.353942,270.824321 C205.938656,273.063774 195.219328,274.552674 182.243183,275.505305 L178.737582,286.46031 Z M160.84493,286.186686 C158.185762,286.012739 154.952725,285.792082 151.256249,285.528994 L151.983756,276.798914 C155.66704,276.725922 159.302662,276.630199 162.861185,276.508662 L160.84493,286.186686 Z M146.268953,285.168574 C143.376114,284.95648 140.27327,284.7239 137,284.472368 L137,276.977262 C140.333095,276.961623 143.65971,276.93135 146.95931,276.884292 L146.268953,285.168574 Z M132,284.083626 C127.999973,283.769034 123.795246,283.429744 119.448433,283.068183 L120.214191,276.942114 C124.114817,276.97469 128.054758,276.991843 132,276.990012 L132,284.083626 Z M114.461946,282.648784 C110.713004,282.329954 106.879837,281.995935 103,281.648183 L103,276.702644 C106.970607,276.778625 111.045093,276.843045 115.181604,276.891524 L114.461946,282.648784 Z M98,281.194642 C93.5347566,280.7847 89.0296534,280.357685 84.540504,279.915758 L85.4880558,276.283654 C89.4665715,276.397145 93.6568655,276.504619 98,276.599905 L98,281.194642 Z M79.5043511,279.412867 C74.8437582,278.940697 70.2232528,278.453193 65.706124,277.952809 L66.6721945,275.658391 C70.721654,275.812004 75.3307212,275.974302 80.3605957,276.130756 L79.5043511,279.412867 Z M60.5272256,277.367987 C55.8070436,276.824369 51.2320837,276.267189 46.8790115,275.699418 C46.9000158,275.467655 46.9175912,275.237617 46.9320052,275.009624 L48.842,274.89 C48.842,274.89 53.5245563,275.130414 61.3354062,275.448558 L60.5272256,277.367987 Z M9.72847545,268.346486 C8.79824329,267.885927 8.1801231,267.426328 7.908,266.969 C7.4001719,266.115557 7.13427743,264.948556 7.07767232,263.518378 C10.0570211,264.056943 12.8694105,264.80442 15.3951118,266.04494 L11.1237596,267.82432 L9.72847545,268.346486 Z M17.144211,270.72917 C18.1033094,270.960714 19.1267027,271.191928 20.2100683,271.422643 C19.8983947,270.872082 19.5709531,270.352142 19.2285713,269.860857 L17.144211,270.72917 Z M10.9009753,249.516286 C14.8469742,245.883824 19.5189958,244.67126 24.0199195,244.684178 L13.8953972,238.101512 C12.3224119,242.07776 10.9286679,245.906052 9.81715401,249.427448 L10.9009753,249.516286 Z M30.9125882,243.353092 C31.3081946,242.623181 31.7496012,241.90965 32.217319,241.221307 L18.9552117,226.099174 C17.8558168,228.576076 16.7847075,231.055972 15.7643676,233.504166 L30.9125909,243.353094 Z M21.1648017,221.20381 C23.9243123,215.185548 26.7643548,209.322697 29.3548323,204.124687 L34.2085575,236.076967 L21.1648017,221.20381 Z M38.9023223,233.769717 C39.1697207,233.534837 39.322,233.409 39.322,233.409 L39.322,184.88 C39.322,184.88 36.8313792,189.451007 33.2342996,196.456882 L33.4198418,197.678314 L38.9023223,233.769717 Z" id="arm-left"></path>
        </g>
    </g>
</svg>