<?xml version="1.0" encoding="utf-8"?>
<svg class="skills-pie-chart" viewBox="331 296 687 160" version="1.1" xmlns="http://www.w3.org/2000/svg" xmlns:xlink="http://www.w3.org/1999/xlink">
  <!-- Generator: Sketch 39.1 (31720) - http://www.bohemiancoding.com/sketch -->
  <desc>Created with Sketch.</desc>
  <defs></defs>
  <g id="Group-3" stroke="none" stroke-width="1" fill="none" fill-rule="evenodd" transform="translate(331.000000, 304.000000)">
    <g id="Group" transform="translate(356.000000, 10.000000)">
      <path d="M85.2791188,120.71904 C78.2209729,123.482753 70.5376725,125 62.5,125 C27.9822031,125 0,97.0177969 0,62.5 C0,27.9822031 27.9822031,0 62.5,0 C65.9327629,0 69.3008881,0.276747302 72.5832814,0.809147812 L70.8121694,11.4017597 C68.2276454,11.0071311 65.5806246,10.8024691 62.8858025,10.8024691 C34.1209718,10.8024691 10.8024691,34.1209718 10.8024691,62.8858025 C10.8024691,91.6506332 34.1209718,114.969136 62.8858025,114.969136 C69.5002932,114.969136 75.8267968,113.736117 81.6480026,111.487389 L85.2791188,120.71904 Z"
        id="Combined-Shape" fill="#6146D0"></path>
      <path d="M90.7669819,118.257534 C111.080999,107.938636 125,86.8447963 125,62.5 C125,33.511321 105.264296,9.13216255 78.4961347,2.0657709 L75.7189887,12.3953993 C98.2780351,18.1116817 114.969136,38.5495344 114.969136,62.8858025 C114.969136,83.2384511 103.295157,100.864496 86.2779444,109.433193 L90.7669819,118.257534 Z"
        id="Combined-Shape-Copy" fill="#50E3C2"></path>
    </g>
    <path d="M292.947,45.057 C292.358,44.449 290.173,42.283 290.173,39.338 C290.173,36.393 292.434,34.151 292.947,33.619 L291.237,32.118 C288.957,34.284 287.722,36.659 287.722,39.338 C287.722,42.188 289.128,44.582 291.237,46.577 L292.947,45.057 Z M302.894629,40.896 C302.894629,38.578 300.975629,36.602 298.600629,36.602 C298.448629,36.602 298.277629,36.602 298.125629,36.621 C298.695629,35.557 299.930629,34.417 300.747629,33.714 L299.227629,31.985 C296.776629,33.961 294.363629,36.963 294.363629,40.668 C294.363629,43.119 296.130629,45.152 298.600629,45.152 C300.918629,45.152 302.894629,43.252 302.894629,40.896 L302.894629,40.896 Z M300.633629,40.858 C300.633629,41.96 299.721629,42.872 298.638629,42.872 C297.536629,42.872 296.643629,41.96 296.643629,40.858 C296.643629,39.756 297.536629,38.844 298.638629,38.844 C299.721629,38.844 300.633629,39.756 300.633629,40.858 L300.633629,40.858 Z M314.799257,38.692 C314.799257,35.481 313.203257,32.289 309.669257,32.289 C306.135257,32.289 304.520257,35.481 304.520257,38.692 C304.520257,42.112 305.945257,45.152 309.669257,45.152 C313.374257,45.152 314.799257,42.112 314.799257,38.692 L314.799257,38.692 Z M312.405257,38.692 C312.405257,40.497 311.968257,42.891 309.669257,42.891 C307.370257,42.891 306.933257,40.497 306.933257,38.692 C306.933257,36.963 307.465257,34.588 309.669257,34.588 C311.873257,34.588 312.405257,36.963 312.405257,38.692 L312.405257,38.692 Z M334.417886,45.152 C337.400886,45.152 338.578886,42.91 338.578886,40.136 C338.578886,37.533 337.248886,35.177 334.417886,35.177 C331.586886,35.177 330.275886,37.533 330.275886,40.136 C330.275886,42.91 331.453886,45.152 334.417886,45.152 L334.417886,45.152 Z M320.623886,39.851 C323.587886,39.851 324.765886,37.609 324.765886,34.835 C324.765886,32.232 323.454886,29.876 320.623886,29.876 C317.792886,29.876 316.462886,32.232 316.462886,34.835 C316.462886,37.609 317.640886,39.851 320.623886,39.851 L320.623886,39.851 Z M334.417886,37.514 C335.842886,37.514 336.165886,39.034 336.165886,40.136 C336.165886,41.295 335.899886,42.853 334.417886,42.853 C332.954886,42.853 332.688886,41.276 332.688886,40.136 C332.688886,39.034 333.011886,37.514 334.417886,37.514 L334.417886,37.514 Z M320.623886,32.213 C322.029886,32.213 322.352886,33.733 322.352886,34.835 C322.352886,35.994 322.105886,37.552 320.623886,37.552 C319.160886,37.552 318.875886,35.975 318.875886,34.835 C318.875886,33.733 319.198886,32.213 320.623886,32.213 L320.623886,32.213 Z M324.157886,45.589 L332.821886,30.636 L330.902886,29.515 L322.238886,44.449 L324.157886,45.589 Z M345.277515,39.338 C345.277515,36.678 344.061515,34.284 341.762515,32.118 L340.052515,33.619 C340.584515,34.151 342.826515,36.298 342.826515,39.338 C342.826515,42.283 340.641515,44.449 340.052515,45.057 L341.762515,46.577 C343.871515,44.582 345.277515,42.188 345.277515,39.338 L345.277515,39.338 Z"
      id="(60%)" fill="#FFFFFF" opacity="0.5"></path>
    <path d="M504.947,125.057 C504.358,124.449 502.173,122.283 502.173,119.338 C502.173,116.393 504.434,114.151 504.947,113.619 L503.237,112.118 C500.957,114.284 499.722,116.659 499.722,119.338 C499.722,122.188 501.128,124.582 503.237,126.577 L504.947,125.057 Z M515.90506,122.682 L515.90506,120.497 L514.49906,120.497 L514.49906,118.084 L512.25706,118.084 L512.25706,120.497 L509.14106,120.497 L513.18806,113.087 L511.25006,112.042 L506.61406,120.611 L506.61406,122.682 L512.25706,122.682 L512.25706,125 L514.49906,125 L514.49906,122.682 L515.90506,122.682 Z M527.737119,118.692 C527.737119,115.481 526.141119,112.289 522.607119,112.289 C519.073119,112.289 517.458119,115.481 517.458119,118.692 C517.458119,122.112 518.883119,125.152 522.607119,125.152 C526.312119,125.152 527.737119,122.112 527.737119,118.692 L527.737119,118.692 Z M525.343119,118.692 C525.343119,120.497 524.906119,122.891 522.607119,122.891 C520.308119,122.891 519.871119,120.497 519.871119,118.692 C519.871119,116.963 520.403119,114.588 522.607119,114.588 C524.811119,114.588 525.343119,116.963 525.343119,118.692 L525.343119,118.692 Z M547.397179,125.152 C550.380179,125.152 551.558179,122.91 551.558179,120.136 C551.558179,117.533 550.228179,115.177 547.397179,115.177 C544.566179,115.177 543.255179,117.533 543.255179,120.136 C543.255179,122.91 544.433179,125.152 547.397179,125.152 L547.397179,125.152 Z M533.603179,119.851 C536.567179,119.851 537.745179,117.609 537.745179,114.835 C537.745179,112.232 536.434179,109.876 533.603179,109.876 C530.772179,109.876 529.442179,112.232 529.442179,114.835 C529.442179,117.609 530.620179,119.851 533.603179,119.851 L533.603179,119.851 Z M547.397179,117.514 C548.822179,117.514 549.145179,119.034 549.145179,120.136 C549.145179,121.295 548.879179,122.853 547.397179,122.853 C545.934179,122.853 545.668179,121.276 545.668179,120.136 C545.668179,119.034 545.991179,117.514 547.397179,117.514 L547.397179,117.514 Z M533.603179,112.213 C535.009179,112.213 535.332179,113.733 535.332179,114.835 C535.332179,115.994 535.085179,117.552 533.603179,117.552 C532.140179,117.552 531.855179,115.975 531.855179,114.835 C531.855179,113.733 532.178179,112.213 533.603179,112.213 L533.603179,112.213 Z M537.137179,125.589 L545.801179,110.636 L543.882179,109.515 L535.218179,124.449 L537.137179,125.589 Z M558.298239,119.338 C558.298239,116.678 557.082239,114.284 554.783239,112.118 L553.073239,113.619 C553.605239,114.151 555.847239,116.298 555.847239,119.338 C555.847239,122.283 553.662239,124.449 553.073239,125.057 L554.783239,126.577 C556.892239,124.582 558.298239,122.188 558.298239,119.338 L558.298239,119.338 Z"
      id="(40%)" fill="#FFFFFF" opacity="0.5"></path>
    <path d="M516.962963,95.962963 L516.962963,83.1851852 L512.666667,83.1851852 L512.666667,95.962963 C512.666667,98.7407407 510.888889,100.740741 508,100.740741 C505.074074,100.740741 503.296296,98.7407407 503.296296,95.962963 L503.296296,83.1851852 L499,83.1851852 L499,95.962963 C499,101.666667 503.037037,105 508,105 C512.925926,105 516.962963,101.666667 516.962963,95.962963 L516.962963,95.962963 Z M539.143986,104.703704 L531.84769,93.7407407 L538.884727,83.1851852 L533.699542,83.1851852 L529.403245,90.1851852 L525.143986,83.1851852 L519.958801,83.1851852 L526.995838,93.7407407 L519.662505,104.703704 L524.84769,104.703704 L529.403245,97.5555556 L533.995838,104.703704 L539.143986,104.703704 Z M570.431958,104.703704 L570.431958,90.0740741 C570.431958,85.3333333 566.098625,83 562.431958,83 C558.580106,83 555.839365,84.7777778 554.506032,86.6296296 L557.543069,89.2222222 C558.209736,88.1481481 560.024551,87.0740741 562.061588,87.0740741 C564.580106,87.0740741 566.135662,88.5555556 566.135662,90.2592593 L566.135662,91.7777778 L560.135662,91.7777778 C555.728254,91.7777778 553.024551,94.8888889 553.024551,98.2222222 C553.024551,102.074074 556.135662,105 560.802328,105 C563.320847,105 565.394921,104.037037 566.135662,102.814815 L566.135662,104.703704 L570.431958,104.703704 Z M566.135662,97.1851852 C566.135662,99.3333333 564.024551,100.888889 561.209736,100.888889 C558.728254,100.888889 557.209736,99.8888889 557.209736,98.1111111 C557.209736,96.3703704 558.468995,95.5925926 560.950476,95.5925926 L566.135662,95.5925926 L566.135662,97.1851852 Z M591.131499,101.259259 L587.946314,98.4074074 C586.724092,99.9259259 585.094462,100.666667 583.390759,100.666667 C579.909277,100.666667 577.983351,98.4444444 577.983351,94 C577.983351,89.5185185 579.909277,87.2962963 583.390759,87.2962963 C585.094462,87.2962963 586.724092,88.037037 587.946314,89.5555556 L591.131499,86.7037037 C588.983351,84.2222222 586.427796,83 583.427796,83 C577.316685,83 573.575944,87.1851852 573.575944,94 C573.575944,101.444444 577.390759,105 583.427796,105 C586.427796,105 588.983351,103.740741 591.131499,101.259259 L591.131499,101.259259 Z M612.238448,93.962963 C612.238448,87.3333333 608.0903,83 602.423634,83 C596.756967,83 592.645856,87.3333333 592.645856,93.962963 C592.645856,101.111111 596.71993,105 602.423634,105 C608.164374,105 612.238448,101.111111 612.238448,93.962963 L612.238448,93.962963 Z M607.831041,93.962963 C607.831041,97.5555556 606.238448,101.185185 602.423634,101.185185 C598.645856,101.185185 597.053263,97.5555556 597.053263,93.962963 C597.053263,90.4814815 598.682893,86.7777778 602.423634,86.7777778 C606.201411,86.7777778 607.831041,90.4814815 607.831041,93.962963 L607.831041,93.962963 Z M629.752805,104.703704 L629.752805,100.592593 L619.789842,100.592593 L619.789842,83.1851852 L615.493546,83.1851852 L615.493546,104.703704 L629.752805,104.703704 Z M648.341235,83.1851852 L643.378272,83.1851852 L638.341235,92.8888889 L633.267161,83.1851852 L628.304198,83.1851852 L636.15605,96.7407407 L636.15605,104.703704 L640.452346,104.703704 L640.452346,96.7407407 L648.341235,83.1851852 Z M667.707443,87.1851852 L667.707443,83.1851852 L650.225962,83.1851852 L650.225962,87.1851852 L656.818555,87.1851852 L656.818555,104.703704 L661.114851,104.703704 L661.114851,87.1851852 L667.707443,87.1851852 Z M686.925503,95.7777778 L686.925503,92.7407407 C686.925503,86.8148148 683.295874,83 677.814392,83 C672.629207,83 668.444022,87.1481481 668.444022,93.7777778 C668.444022,101.296296 672.518096,105 678.406985,105 C681.59217,105 684.444022,103.814815 686.444022,101.518519 L683.295874,98.8148148 C681.962541,100.222222 680.147726,100.888889 678.332911,100.888889 C674.925503,100.888889 672.999578,98.7037037 672.999578,95.7777778 L686.925503,95.7777778 Z M682.406985,91.7777778 L672.999578,91.7777778 C673.073652,89.0740741 675.295874,87.0740741 677.814392,87.0740741 C680.777355,87.0740741 682.332911,89.2962963 682.406985,91.7777778 L682.406985,91.7777778 Z"
      id="UX-Acolyte" fill="#FFFFFF"></path>
    <polyline id="Line" stroke="#F0F0F0" stroke-width="2" stroke-linecap="square" opacity="0.200000003" points="480 42.0120087 515.500001 42.0120087 535.214049 71.9693498"></polyline>
    <polyline id="Line-Copy" stroke="#F0F0F0" stroke-width="2" stroke-linecap="square" opacity="0.200000003" points="220.5 30.5 245.5 69.3776512 346.5 69.3776512"></polyline>
    <path d="M17.8657718,15.2449664 C17.8657718,11.295302 15.1711409,9.52348993 11.5536913,9.08053691 L8.01006711,8.63758389 C6.97651007,8.52684564 5.20469799,8.08389262 5.20469799,6.71812081 C5.20469799,4.57718121 7.08724832,4.13422819 8.8590604,4.13422819 C10.9630872,4.13422819 12.9194631,4.90939597 14.6174497,6.09060403 L17.2751678,2.95302013 C14.8758389,0.959731544 11.9966443,0.0738255034 8.8590604,0.0738255034 C4.90939597,0.0738255034 0.88590604,2.25167785 0.88590604,6.6442953 C0.88590604,10.2986577 3.61744966,12.4026846 7.05033557,12.8087248 C7.45637584,12.8825503 10.852349,13.2147651 10.852349,13.2147651 C11.8489933,13.3255034 13.3624161,13.9161074 13.3624161,15.1711409 C13.3624161,17.533557 11.147651,17.9026846 9.22818792,17.9026846 C6.60738255,17.9026846 4.87248322,16.9798658 2.98993289,15.1711409 L0,18.1241611 C2.62080537,20.5973154 5.24161074,22 8.89597315,22 C13.0671141,22 17.8657718,20.0805369 17.8657718,15.2449664 L17.8657718,15.2449664 Z M39.8985364,11 C39.8985364,4.39261745 35.7643082,0.0738255034 30.1166572,0.0738255034 C24.4690062,0.0738255034 20.3716907,4.39261745 20.3716907,11 C20.3716907,18.1241611 24.4320934,22 30.1166572,22 C35.8381337,22 39.8985364,18.1241611 39.8985364,11 L39.8985364,11 Z M35.5059189,11 C35.5059189,14.5805369 33.9186706,18.1979866 30.1166572,18.1979866 C26.3515565,18.1979866 24.7643082,14.5805369 24.7643082,11 C24.7643082,7.53020134 26.3884693,3.83892617 30.1166572,3.83892617 C33.8817578,3.83892617 35.5059189,7.53020134 35.5059189,11 L35.5059189,11 Z M58.3876768,4.28187919 L58.3876768,0.258389262 L43.1427103,0.258389262 L43.1427103,21.704698 L47.4245895,21.704698 L47.4245895,13.6946309 L56.2467372,13.6946309 L56.2467372,9.67114094 L47.4245895,9.67114094 L47.4245895,4.28187919 L58.3876768,4.28187919 Z M78.7224547,4.24496644 L78.7224547,0.258389262 L61.2996359,0.258389262 L61.2996359,4.24496644 L67.8701057,4.24496644 L67.8701057,21.704698 L72.1519849,21.704698 L72.1519849,4.24496644 L78.7224547,4.24496644 Z M111.164615,0.258389262 L106.587434,0.258389262 L102.453206,15.2818792 L97.9129374,0.258389262 L94.0370985,0.258389262 L89.49683,15.2818792 L85.3626018,0.258389262 L80.7854206,0.258389262 L87.6511924,21.704698 L91.4532059,21.704698 L95.9565616,6.71812081 L100.49683,21.704698 L104.298843,21.704698 L111.164615,0.258389262 Z M128.841675,21.704698 L128.841675,7.12416107 C128.841675,2.39932886 124.522883,0.0738255034 120.868521,0.0738255034 C117.029595,0.0738255034 114.298051,1.84563758 112.969192,3.69127517 L115.996038,6.27516779 C116.660467,5.20469799 118.469192,4.13422819 120.499393,4.13422819 C123.00946,4.13422819 124.559796,5.61073826 124.559796,7.30872483 L124.559796,8.82214765 L118.57993,8.82214765 C114.187313,8.82214765 111.492682,11.9228188 111.492682,15.2449664 C111.492682,19.0838926 114.593353,22 119.24436,22 C121.754427,22 123.821541,21.0402685 124.559796,19.8221477 L124.559796,21.704698 L128.841675,21.704698 Z M124.559796,14.2114094 C124.559796,16.352349 122.455769,17.9026846 119.6504,17.9026846 C117.177246,17.9026846 115.663823,16.9060403 115.663823,15.1342282 C115.663823,13.3993289 116.918856,12.6241611 119.392011,12.6241611 L124.559796,12.6241611 L124.559796,14.2114094 Z M147.146252,1.69798658 C145.854305,0.590604027 144.230144,0 142.532158,0 C140.169742,0 138.250279,0.959731544 136.884507,2.54697987 L136.884507,0.258389262 L132.602628,0.258389262 L132.602628,21.704698 L136.884507,21.704698 L136.884507,8.93288591 C136.884507,6.27516779 138.767057,4.13422819 141.609339,4.13422819 C142.864373,4.13422819 143.89793,4.54026846 144.783836,5.24161074 L147.146252,1.69798658 Z M165.413916,12.8087248 L165.413916,9.78187919 C165.413916,3.87583893 161.796466,0.0738255034 156.333379,0.0738255034 C151.165593,0.0738255034 146.994453,4.20805369 146.994453,10.8154362 C146.994453,18.3087248 151.054855,22 156.923983,22 C160.098479,22 162.940761,20.8187919 164.93405,18.5302013 L161.796466,15.8355705 C160.467607,17.238255 158.658882,17.9026846 156.850157,17.9026846 C153.454184,17.9026846 151.534721,15.7248322 151.534721,12.8087248 L165.413916,12.8087248 Z M160.91056,8.82214765 L151.534721,8.82214765 C151.608547,6.12751678 153.823312,4.13422819 156.333379,4.13422819 C159.286399,4.13422819 160.836734,6.34899329 160.91056,8.82214765 L160.91056,8.82214765 Z M199.254613,11 C199.254613,5.24161074 196.301592,0.258389262 190.026425,0.258389262 L180.761324,0.258389262 L180.761324,21.704698 L190.063337,21.704698 C196.523069,21.704698 199.254613,16.942953 199.254613,11 L199.254613,11 Z M194.455955,11.147651 C194.455955,14.3590604 193.606962,17.8288591 189.657297,17.8288591 L185.227767,17.8288591 L185.227767,4.17114094 L189.325082,4.17114094 C193.164008,4.17114094 194.455955,7.93624161 194.455955,11.147651 L194.455955,11.147651 Z M220.290733,12.8087248 L220.290733,9.78187919 C220.290733,3.87583893 216.673283,0.0738255034 211.210196,0.0738255034 C206.042411,0.0738255034 201.87127,4.20805369 201.87127,10.8154362 C201.87127,18.3087248 205.931672,22 211.8008,22 C214.975297,22 217.817578,20.8187919 219.810867,18.5302013 L216.673283,15.8355705 C215.344424,17.238255 213.535699,17.9026846 211.726974,17.9026846 C208.331001,17.9026846 206.411538,15.7248322 206.411538,12.8087248 L220.290733,12.8087248 Z M215.787377,8.82214765 L206.411538,8.82214765 C206.485364,6.12751678 208.700129,4.13422819 211.210196,4.13422819 C214.163216,4.13422819 215.713552,6.34899329 215.787377,8.82214765 L215.787377,8.82214765 Z M240.145645,0.258389262 L235.568464,0.258389262 L230.511417,15.2818792 L225.45437,0.258389262 L220.877189,0.258389262 L228.739605,21.704698 L232.283229,21.704698 L240.145645,0.258389262 Z M258.782436,12.8087248 L258.782436,9.78187919 C258.782436,3.87583893 255.164987,0.0738255034 249.701899,0.0738255034 C244.534114,0.0738255034 240.362973,4.20805369 240.362973,10.8154362 C240.362973,18.3087248 244.423376,22 250.292503,22 C253.467,22 256.309282,20.8187919 258.302571,18.5302013 L255.164987,15.8355705 C253.836128,17.238255 252.027403,17.9026846 250.218678,17.9026846 C246.822705,17.9026846 244.903242,15.7248322 244.903242,12.8087248 L258.782436,12.8087248 Z M254.279081,8.82214765 L244.903242,8.82214765 C244.977067,6.12751678 247.191832,4.13422819 249.701899,4.13422819 C252.65492,4.13422819 254.205255,6.34899329 254.279081,8.82214765 L254.279081,8.82214765 Z M276.422583,21.704698 L276.422583,17.6073826 L266.493053,17.6073826 L266.493053,0.258389262 L262.211174,0.258389262 L262.211174,21.704698 L276.422583,21.704698 Z M296.757361,11 C296.757361,4.39261745 292.623133,0.0738255034 286.975482,0.0738255034 C281.327831,0.0738255034 277.230516,4.39261745 277.230516,11 C277.230516,18.1241611 281.290919,22 286.975482,22 C292.696959,22 296.757361,18.1241611 296.757361,11 L296.757361,11 Z M292.364744,11 C292.364744,14.5805369 290.777496,18.1979866 286.975482,18.1979866 C283.210382,18.1979866 281.623133,14.5805369 281.623133,11 C281.623133,7.53020134 283.247294,3.83892617 286.975482,3.83892617 C290.740583,3.83892617 292.364744,7.53020134 292.364744,11 L292.364744,11 Z M316.42771,7.82550336 C316.42771,3.46979866 313.142475,0.258389262 308.897509,0.258389262 L300.001535,0.258389262 L300.001535,21.704698 L304.283415,21.704698 L304.283415,15.3926174 L309.192811,15.3926174 C313.400864,15.3926174 316.42771,11.6275168 316.42771,7.82550336 L316.42771,7.82550336 Z M312.108918,7.75167785 C312.108918,9.19127517 311.001535,11.2583893 309.192811,11.2583893 L304.283415,11.2583893 L304.283415,4.20805369 L309.082072,4.20805369 C311.075361,4.20805369 312.108918,6.27516779 312.108918,7.75167785 L312.108918,7.75167785 Z M337.168528,12.8087248 L337.168528,9.78187919 C337.168528,3.87583893 333.551078,0.0738255034 328.087991,0.0738255034 C322.920206,0.0738255034 318.749065,4.20805369 318.749065,10.8154362 C318.749065,18.3087248 322.809468,22 328.678595,22 C331.853092,22 334.695374,20.8187919 336.688662,18.5302013 L333.551078,15.8355705 C332.222219,17.238255 330.413495,17.9026846 328.60477,17.9026846 C325.208797,17.9026846 323.289334,15.7248322 323.289334,12.8087248 L337.168528,12.8087248 Z M332.665172,8.82214765 L323.289334,8.82214765 C323.363159,6.12751678 325.577924,4.13422819 328.087991,4.13422819 C331.041011,4.13422819 332.591347,6.34899329 332.665172,8.82214765 L332.665172,8.82214765 Z M355.14089,1.69798658 C353.848944,0.590604027 352.224783,0 350.526796,0 C348.16438,0 346.244917,0.959731544 344.879145,2.54697987 L344.879145,0.258389262 L340.597266,0.258389262 L340.597266,21.704698 L344.879145,21.704698 L344.879145,8.93288591 C344.879145,6.27516779 346.761695,4.13422819 349.603977,4.13422819 C350.859011,4.13422819 351.892568,4.54026846 352.778474,5.24161074 L355.14089,1.69798658 Z"
      id="Software-Developer" fill="#FFFFFF"></path>
  </g>
</svg>
