<?xml version="1.0" encoding="UTF-8" standalone="no"?>
<svg width="1500px" height="673px" viewBox="0 0 1500 673" version="1.1" xmlns="http://www.w3.org/2000/svg" xmlns:xlink="http://www.w3.org/1999/xlink">
    <!-- Generator: Sketch 3.8.1 (29687) - http://www.bohemiancoding.com/sketch -->
    <title>Artboard 3</title>
    <desc>Created with Sketch.</desc>
    <defs>
        <rect id="path-1" x="0" y="168" width="1500" height="479"></rect>
        <filter x="-50%" y="-50%" width="200%" height="200%" filterUnits="objectBoundingBox" id="filter-2">
            <feOffset dx="0" dy="20" in="SourceAlpha" result="shadowOffsetInner1"></feOffset>
            <feComposite in="shadowOffsetInner1" in2="SourceAlpha" operator="arithmetic" k2="-1" k3="1" result="shadowInnerInner1"></feComposite>
            <feColorMatrix values="0 0 0 0 0   0 0 0 0 0   0 0 0 0 0  0 0 0 0.0948539402 0" type="matrix" in="shadowInnerInner1"></feColorMatrix>
        </filter>
        <rect id="path-3" x="0" y="0" width="170" height="58"></rect>
        <mask id="mask-4" maskContentUnits="userSpaceOnUse" maskUnits="objectBoundingBox" x="-1" y="-1" width="172" height="60">
            <rect x="-1" y="-1" width="172" height="60" fill="white"></rect>
            <use xlink:href="#path-3" fill="black"></use>
        </mask>
        <linearGradient x1="29.663594%" y1="-36.8063726%" x2="75.4915557%" y2="111.697019%" id="linearGradient-5">
            <stop stop-color="#FFFFFF" offset="65.138707%"></stop>
            <stop stop-color="#B7B7B7" offset="100%"></stop>
        </linearGradient>
        <path d="M59.1637688,40.3849043 L58.8236141,39.6209042 C56.5715961,34.562789 50.6626977,32.2986833 45.6173255,34.5450278 C40.5708439,36.7918661 38.3044454,42.7059635 40.5527049,47.7556371 L40.8928597,48.5196372 L40.8928597,48.5196372 L26.716281,16.6785202 C24.4703777,11.6341388 18.5627427,9.37287063 13.5173705,11.6192151 C8.47088887,13.8660534 6.20118708,19.7727315 8.44537184,24.813253 L27.2750601,67.1054253 L32.4636135,78.7591071 C34.7156315,83.8172223 40.6206299,86.0830643 45.6611913,83.8388618 L100.49134,59.4269066 C105.532189,57.1825761 107.79551,51.2698492 105.54725,46.2201756 L100.456341,34.7858071 L95.3654324,23.3514385 C93.1134144,18.2933233 87.204516,16.0292176 82.1591438,18.2755621 C77.1126622,20.5224004 74.8462637,26.4364978 77.0945232,31.4861714 L77.434678,32.2501715 L77.434678,32.2501715 L77.0945232,31.4861714 C74.8425052,26.4280562 68.9336069,24.1639505 63.8882346,26.4102949 C58.841753,28.6571333 56.5753545,34.5712306 58.8236141,39.6209042 L59.1637688,40.3849043 L59.1637688,40.3849043 L59.1637688,40.3849043 Z" id="path-6"></path>
        <filter x="-50%" y="-50%" width="200%" height="200%" filterUnits="objectBoundingBox" id="filter-7">
            <feMorphology radius="2" operator="dilate" in="SourceAlpha" result="shadowSpreadOuter1"></feMorphology>
            <feOffset dx="0" dy="10" in="shadowSpreadOuter1" result="shadowOffsetOuter1"></feOffset>
            <feComposite in="shadowOffsetOuter1" in2="SourceAlpha" operator="out" result="shadowOffsetOuter1"></feComposite>
            <feColorMatrix values="0 0 0 0 0   0 0 0 0 0   0 0 0 0 0  0 0 0 0.154268569 0" type="matrix" in="shadowOffsetOuter1"></feColorMatrix>
        </filter>
        <mask id="mask-8" maskContentUnits="userSpaceOnUse" maskUnits="objectBoundingBox" x="-2" y="-2" width="102.836738" height="77.9541024">
            <rect x="5.57975428" y="8.75083398" width="102.836738" height="77.9541024" fill="white"></rect>
            <use xlink:href="#path-6" fill="black"></use>
        </mask>
        <rect id="path-9" x="0" y="0" width="170" height="58"></rect>
        <mask id="mask-10" maskContentUnits="userSpaceOnUse" maskUnits="objectBoundingBox" x="-1" y="-1" width="172" height="60">
            <rect x="-1" y="-1" width="172" height="60" fill="white"></rect>
            <use xlink:href="#path-9" fill="black"></use>
        </mask>
        <path d="M59.1637688,40.3849043 L58.8236141,39.6209042 C56.5715961,34.562789 50.6626977,32.2986833 45.6173255,34.5450278 C40.5708439,36.7918661 38.3044454,42.7059635 40.5527049,47.7556371 L40.8928597,48.5196372 L40.8928597,48.5196372 L26.716281,16.6785202 C24.4703777,11.6341388 18.5627427,9.37287063 13.5173705,11.6192151 C8.47088887,13.8660534 6.20118708,19.7727315 8.44537184,24.813253 L27.2750601,67.1054253 L32.4636135,78.7591071 C34.7156315,83.8172223 40.6206299,86.0830643 45.6611913,83.8388618 L100.49134,59.4269066 C105.532189,57.1825761 107.79551,51.2698492 105.54725,46.2201756 L100.456341,34.7858071 L95.3654324,23.3514385 C93.1134144,18.2933233 87.204516,16.0292176 82.1591438,18.2755621 C77.1126622,20.5224004 74.8462637,26.4364978 77.0945232,31.4861714 L77.434678,32.2501715 L77.434678,32.2501715 L77.0945232,31.4861714 C74.8425052,26.4280562 68.9336069,24.1639505 63.8882346,26.4102949 C58.841753,28.6571333 56.5753545,34.5712306 58.8236141,39.6209042 L59.1637688,40.3849043 L59.1637688,40.3849043 L59.1637688,40.3849043 Z" id="path-11"></path>
        <filter x="-50%" y="-50%" width="200%" height="200%" filterUnits="objectBoundingBox" id="filter-12">
            <feMorphology radius="2" operator="dilate" in="SourceAlpha" result="shadowSpreadOuter1"></feMorphology>
            <feOffset dx="0" dy="10" in="shadowSpreadOuter1" result="shadowOffsetOuter1"></feOffset>
            <feComposite in="shadowOffsetOuter1" in2="SourceAlpha" operator="out" result="shadowOffsetOuter1"></feComposite>
            <feColorMatrix values="0 0 0 0 0   0 0 0 0 0   0 0 0 0 0  0 0 0 0.154268569 0" type="matrix" in="shadowOffsetOuter1"></feColorMatrix>
        </filter>
        <mask id="mask-13" maskContentUnits="userSpaceOnUse" maskUnits="objectBoundingBox" x="-2" y="-2" width="102.836738" height="77.9541024">
            <rect x="5.57975428" y="8.75083398" width="102.836738" height="77.9541024" fill="white"></rect>
            <use xlink:href="#path-11" fill="black"></use>
        </mask>
        <rect id="path-14" x="0" y="0" width="170" height="58"></rect>
        <mask id="mask-15" maskContentUnits="userSpaceOnUse" maskUnits="objectBoundingBox" x="-1" y="-1" width="172" height="60">
            <rect x="-1" y="-1" width="172" height="60" fill="white"></rect>
            <use xlink:href="#path-14" fill="black"></use>
        </mask>
        <path d="M59.1637688,40.3849043 L58.8236141,39.6209042 C56.5715961,34.562789 50.6626977,32.2986833 45.6173255,34.5450278 C40.5708439,36.7918661 38.3044454,42.7059635 40.5527049,47.7556371 L40.8928597,48.5196372 L40.8928597,48.5196372 L26.716281,16.6785202 C24.4703777,11.6341388 18.5627427,9.37287063 13.5173705,11.6192151 C8.47088887,13.8660534 6.20118708,19.7727315 8.44537184,24.813253 L27.2750601,67.1054253 L32.4636135,78.7591071 C34.7156315,83.8172223 40.6206299,86.0830643 45.6611913,83.8388618 L100.49134,59.4269066 C105.532189,57.1825761 107.79551,51.2698492 105.54725,46.2201756 L100.456341,34.7858071 L95.3654324,23.3514385 C93.1134144,18.2933233 87.204516,16.0292176 82.1591438,18.2755621 C77.1126622,20.5224004 74.8462637,26.4364978 77.0945232,31.4861714 L77.434678,32.2501715 L77.434678,32.2501715 L77.0945232,31.4861714 C74.8425052,26.4280562 68.9336069,24.1639505 63.8882346,26.4102949 C58.841753,28.6571333 56.5753545,34.5712306 58.8236141,39.6209042 L59.1637688,40.3849043 L59.1637688,40.3849043 L59.1637688,40.3849043 Z" id="path-16"></path>
        <filter x="-50%" y="-50%" width="200%" height="200%" filterUnits="objectBoundingBox" id="filter-17">
            <feMorphology radius="2" operator="dilate" in="SourceAlpha" result="shadowSpreadOuter1"></feMorphology>
            <feOffset dx="0" dy="10" in="shadowSpreadOuter1" result="shadowOffsetOuter1"></feOffset>
            <feComposite in="shadowOffsetOuter1" in2="SourceAlpha" operator="out" result="shadowOffsetOuter1"></feComposite>
            <feColorMatrix values="0 0 0 0 0   0 0 0 0 0   0 0 0 0 0  0 0 0 0.154268569 0" type="matrix" in="shadowOffsetOuter1"></feColorMatrix>
        </filter>
        <mask id="mask-18" maskContentUnits="userSpaceOnUse" maskUnits="objectBoundingBox" x="-2" y="-2" width="102.836738" height="77.9541024">
            <rect x="5.57975428" y="8.75083398" width="102.836738" height="77.9541024" fill="white"></rect>
            <use xlink:href="#path-16" fill="black"></use>
        </mask>
    </defs>
    <g id="Storyboards" stroke="none" stroke-width="1" fill="none" fill-rule="evenodd">
        <g id="Samantha-and-Jorge" transform="translate(0.000000, -1502.000000)">
            <g id="Scenario-1" transform="translate(0.000000, 623.000000)">
                <g id="Enter-access-codes" transform="translate(0.000000, 908.000000)">
                    <g id="Rectangle-90">
                        <use fill="#9B9B9B" fill-rule="evenodd" xlink:href="#path-1"></use>
                        <use fill="black" fill-opacity="1" filter="url(#filter-2)" xlink:href="#path-1"></use>
                    </g>
                    <g id="Enter-access-code-#1" transform="translate(80.000000, 215.000000)">
                        <g id="Device-Frame">
                            <rect id="Rectangle-1" fill="#000000" x="0" y="0" width="200" height="380" rx="12"></rect>
                            <rect id="Rectangle-2" fill="#FFFFFF" x="15" y="15" width="170" height="320"></rect>
                        </g>
                        <g id="Neutral" transform="translate(284.000000, 284.000000)">
                            <circle id="Oval-1" fill="#D8D8D8" cx="48" cy="48" r="48"></circle>
                            <g id="Group" stroke-width="1" transform="translate(23.000000, 24.000000)">
                                <circle id="Oval-2" stroke="#6A6A6A" stroke-width="2" fill="#FFFFFF" cx="10.5" cy="10.5" r="10.5"></circle>
                                <circle id="Oval-2-Copy" fill="#6A6A6A" cx="8" cy="8" r="5"></circle>
                                <circle id="Oval-2-Copy-3" stroke="#6A6A6A" stroke-width="2" fill="#FFFFFF" cx="40.5" cy="10.5" r="10.5"></circle>
                                <circle id="Oval-2-Copy-2" fill="#6A6A6A" cx="38" cy="8" r="5"></circle>
                            </g>
                        </g>
                        <g id="titlebar" opacity="0.1" transform="translate(15.000000, 15.000000)">
                            <g id="Rectangle-3">
                                <use fill="#9B9B9B" fill-rule="evenodd" xlink:href="#path-3"></use>
                                <use stroke="#000000" mask="url(#mask-4)" stroke-width="2" xlink:href="#path-3"></use>
                            </g>
                            <text id="Lunch-Money-Buddy" font-family="HanziPenSC-W5, HanziPen SC" font-size="18" font-weight="bold" fill="#000000">
                                <tspan x="12" y="45">Lunch Money Buddy</tspan>
                            </text>
                        </g>
                        <text id="Enter-student-access" font-family="HanziPenSC-W5, HanziPen SC" font-size="15" font-weight="bold" line-spacing="17" fill="#4990E2">
                            <tspan x="27" y="126">Enter student access </tspan>
                            <tspan x="27" y="143">code:</tspan>
                        </text>
                        <g id="code" transform="translate(27.000000, 154.000000)">
                            <path d="M0,0 L16.2430939,0 L16.2430939,25 L0,25 L0,0 Z M18.679558,0 L34.9226519,0 L34.9226519,25 L18.679558,25 L18.679558,0 Z M37.359116,0 L53.6022099,0 L53.6022099,25 L37.359116,25 L37.359116,0 Z M56.038674,0 L72.281768,0 L72.281768,25 L56.038674,25 L56.038674,0 Z M74.718232,0 L90.961326,0 L90.961326,25 L74.718232,25 L74.718232,0 Z M93.3977901,0 L109.640884,0 L109.640884,25 L93.3977901,25 L93.3977901,0 Z M112.077348,0 L128.320442,0 L128.320442,25 L112.077348,25 L112.077348,0 Z M130.756906,0 L147,0 L147,25 L130.756906,25 L130.756906,0 Z" id="Combined-Shape" stroke="#4990E2" fill="#FFFFFF"></path>
                            <text id="1234567" font-family="HanziPenSC-W5, HanziPen SC" font-size="15" font-weight="bold" letter-spacing="9.80000019" fill="#000000">
                                <tspan x="4" y="17">123456</tspan>
                                <tspan x="116.530001" y="17">7</tspan>
                            </text>
                        </g>
                        <g id="keyboard-numbers" opacity="0.1" transform="translate(15.000000, 235.000000)">
                            <rect id="Rectangle-11" stroke="#000000" stroke-width="1" fill="#9B9B9B" fill-rule="evenodd" x="0" y="0" width="170" height="100"></rect>
                            <text id="123" font-family="HanziPenSC-W5, HanziPen SC" font-size="15" font-weight="bold" line-spacing="25" letter-spacing="48" fill="#000000">
                                <tspan x="22" y="16">123</tspan>
                                <tspan x="22" y="41">456</tspan>
                                <tspan x="22" y="66">789</tspan>
                                <tspan x="22" y="91">*0</tspan>
                                <tspan x="134.5" y="91">&lt;</tspan>
                            </text>
                            <g id="Group" stroke-width="1" fill-rule="evenodd" stroke="#000000" stroke-linecap="square">
                                <path d="M0.5,50.5 L170.036133,50.5" id="Line-Copy"></path>
                                <path d="M0.5,75.5 L170.036133,75.5" id="Line-Copy-2"></path>
                                <path d="M0.5,25.5 L170.036133,25.5" id="Line-Copy-3"></path>
                                <path d="M54,1 L54,99.531723" id="Line"></path>
                                <path d="M114,1 L114,99.531723" id="Line-Copy-4"></path>
                            </g>
                        </g>
                        <g id="hand" transform="translate(88.000000, 286.000000)">
                            <g id="Combined-Shape">
                                <use fill="black" fill-opacity="1" filter="url(#filter-7)" xlink:href="#path-6"></use>
                                <use fill="url(#linearGradient-5)" fill-rule="evenodd" xlink:href="#path-6"></use>
                                <use stroke="#000000" mask="url(#mask-8)" stroke-width="4" xlink:href="#path-6"></use>
                            </g>
                        </g>
                    </g>
                    <g id="Access-code-#1-accepted" transform="translate(560.000000, 215.000000)">
                        <g id="Device-Frame">
                            <rect id="Rectangle-1" fill="#000000" x="0" y="0" width="200" height="380" rx="12"></rect>
                            <rect id="Rectangle-2" fill="#FFFFFF" x="15" y="15" width="170" height="320"></rect>
                        </g>
                        <g id="Neutral" transform="translate(284.000000, 284.000000)">
                            <circle id="Oval-1" fill="#D8D8D8" cx="48" cy="48" r="48"></circle>
                            <g id="Group" stroke-width="1" transform="translate(23.000000, 24.000000)">
                                <circle id="Oval-2" stroke="#6A6A6A" stroke-width="2" fill="#FFFFFF" cx="10.5" cy="10.5" r="10.5"></circle>
                                <circle id="Oval-2-Copy" fill="#6A6A6A" cx="8" cy="8" r="5"></circle>
                                <circle id="Oval-2-Copy-3" stroke="#6A6A6A" stroke-width="2" fill="#FFFFFF" cx="40.5" cy="10.5" r="10.5"></circle>
                                <circle id="Oval-2-Copy-2" fill="#6A6A6A" cx="38" cy="8" r="5"></circle>
                            </g>
                        </g>
                        <g id="titlebar" opacity="0.1" transform="translate(15.000000, 15.000000)">
                            <g id="Rectangle-3">
                                <use fill="#9B9B9B" fill-rule="evenodd" xlink:href="#path-9"></use>
                                <use stroke="#000000" mask="url(#mask-10)" stroke-width="2" xlink:href="#path-9"></use>
                            </g>
                            <text id="Lunch-Money-Buddy" font-family="HanziPenSC-W5, HanziPen SC" font-size="18" font-weight="bold" fill="#000000">
                                <tspan x="12" y="45">Lunch Money Buddy</tspan>
                            </text>
                        </g>
                        <rect id="Rectangle-17" fill="#7ED321" x="15" y="96" width="170" height="46"></rect>
                        <text id="Added-Hailee!" font-family="HanziPenSC-W5, HanziPen SC" font-size="22" font-weight="bold" line-spacing="17" fill="#FFFFFF">
                            <tspan x="33.939" y="128.342">Added Hailee!</tspan>
                        </text>
                        <text id="Do-you-have-another-" font-family="HanziPenSC-W5, HanziPen SC" font-size="15" font-weight="bold" line-spacing="17" fill="#4990E2">
                            <tspan x="27" y="196">Do you have another </tspan>
                            <tspan x="27" y="213">child to add?</tspan>
                        </text>
                        <g id="Group" transform="translate(27.000000, 228.000000)">
                            <rect id="Rectangle-1" fill="#4990E2" x="0" y="0" width="147" height="36" rx="6"></rect>
                            <text id="Yes" font-family="HanziPenSC-W5, HanziPen SC" font-size="13" font-weight="bold" fill="#FFFFFF">
                                <tspan x="64.7375" y="22">Yes</tspan>
                            </text>
                        </g>
                        <g id="Group-Copy" transform="translate(27.000000, 278.000000)">
                            <rect id="Rectangle-1" fill="#4990E2" x="0" y="0" width="147" height="36" rx="6"></rect>
                            <text id="No" font-family="HanziPenSC-W5, HanziPen SC" font-size="13" font-weight="bold" fill="#FFFFFF">
                                <tspan x="67.1035" y="22">No</tspan>
                            </text>
                        </g>
                        <g id="hand" transform="translate(129.000000, 228.000000)">
                            <g id="Combined-Shape">
                                <use fill="black" fill-opacity="1" filter="url(#filter-12)" xlink:href="#path-11"></use>
                                <use fill="url(#linearGradient-5)" fill-rule="evenodd" xlink:href="#path-11"></use>
                                <use stroke="#000000" mask="url(#mask-13)" stroke-width="4" xlink:href="#path-11"></use>
                            </g>
                        </g>
                    </g>
                    <g id="Enter-access-code-#2" transform="translate(1040.000000, 213.000000)">
                        <g id="Device-Frame">
                            <rect id="Rectangle-1" fill="#000000" x="0" y="0" width="200" height="380" rx="12"></rect>
                            <rect id="Rectangle-2" fill="#FFFFFF" x="15" y="15" width="170" height="320"></rect>
                        </g>
                        <g id="Neutral" transform="translate(284.000000, 284.000000)">
                            <circle id="Oval-1" fill="#D8D8D8" cx="48" cy="48" r="48"></circle>
                            <g id="Group" stroke-width="1" transform="translate(23.000000, 24.000000)">
                                <circle id="Oval-2" stroke="#6A6A6A" stroke-width="2" fill="#FFFFFF" cx="10.5" cy="10.5" r="10.5"></circle>
                                <circle id="Oval-2-Copy" fill="#6A6A6A" cx="8" cy="8" r="5"></circle>
                                <circle id="Oval-2-Copy-3" stroke="#6A6A6A" stroke-width="2" fill="#FFFFFF" cx="40.5" cy="10.5" r="10.5"></circle>
                                <circle id="Oval-2-Copy-2" fill="#6A6A6A" cx="38" cy="8" r="5"></circle>
                            </g>
                        </g>
                        <g id="titlebar" opacity="0.1" transform="translate(15.000000, 15.000000)">
                            <g id="Rectangle-3">
                                <use fill="#9B9B9B" fill-rule="evenodd" xlink:href="#path-14"></use>
                                <use stroke="#000000" mask="url(#mask-15)" stroke-width="2" xlink:href="#path-14"></use>
                            </g>
                            <text id="Lunch-Money-Buddy" font-family="HanziPenSC-W5, HanziPen SC" font-size="18" font-weight="bold" fill="#000000">
                                <tspan x="12" y="45">Lunch Money Buddy</tspan>
                            </text>
                        </g>
                        <rect id="Rectangle-17" fill="#7ED321" x="15" y="96" width="170" height="46"></rect>
                        <text id="Added-Brenden!" font-family="HanziPenSC-W5, HanziPen SC" font-size="22" font-weight="bold" line-spacing="17" fill="#FFFFFF">
                            <tspan x="27" y="133">Added Brenden!</tspan>
                        </text>
                        <text id="Do-you-have-another-" font-family="HanziPenSC-W5, HanziPen SC" font-size="15" font-weight="bold" line-spacing="17" fill="#4990E2">
                            <tspan x="27" y="196">Do you have another </tspan>
                            <tspan x="27" y="213">child to add?</tspan>
                        </text>
                        <g id="Group" transform="translate(27.000000, 228.000000)">
                            <rect id="Rectangle-1" fill="#4990E2" x="0" y="0" width="147" height="36" rx="6"></rect>
                            <text id="Yes" font-family="HanziPenSC-W5, HanziPen SC" font-size="13" font-weight="bold" fill="#FFFFFF">
                                <tspan x="64.7375" y="22">Yes</tspan>
                            </text>
                        </g>
                        <g id="Group-Copy" transform="translate(27.000000, 278.000000)">
                            <rect id="Rectangle-1" fill="#4990E2" x="0" y="0" width="147" height="36" rx="6"></rect>
                            <text id="No" font-family="HanziPenSC-W5, HanziPen SC" font-size="13" font-weight="bold" fill="#FFFFFF">
                                <tspan x="67.1035" y="22">No</tspan>
                            </text>
                        </g>
                        <g id="hand" transform="translate(129.000000, 284.000000)">
                            <g id="Combined-Shape">
                                <use fill="black" fill-opacity="1" filter="url(#filter-17)" xlink:href="#path-16"></use>
                                <use fill="url(#linearGradient-5)" fill-rule="evenodd" xlink:href="#path-16"></use>
                                <use stroke="#000000" mask="url(#mask-18)" stroke-width="4" xlink:href="#path-16"></use>
                            </g>
                        </g>
                    </g>
                    <text id="He-enters-the-access" font-family="HanziPenSC-W5, HanziPen SC" font-size="48" font-weight="bold" line-spacing="60" fill="#6E6E6E">
                        <tspan x="50" y="51">He enters the access codes from the info sheets the kids brought </tspan>
                        <tspan x="50" y="111">home after the first day of school.</tspan>
                    </text>
                </g>
            </g>
        </g>
        <g id="Artboard-3"></g>
    </g>
</svg>
