<?xml version="1.0" encoding="UTF-8" standalone="no"?>
<svg width="200px" height="200px" viewBox="0 0 200 200" version="1.1" xmlns="http://www.w3.org/2000/svg" xmlns:xlink="http://www.w3.org/1999/xlink" xmlns:sketch="http://www.bohemiancoding.com/sketch/ns">
    <!-- Generator: Sketch 3.4.4 (17249) - http://www.bohemiancoding.com/sketch -->
    <title>icon-github</title>
    <desc>Created with Sketch.</desc>
    <defs></defs>
    <g id="Page-1" stroke="none" stroke-width="1" fill="none" fill-rule="evenodd" sketch:type="MSPage">
        <g id="Icon:-GitHub" sketch:type="MSArtboardGroup" fill="#FFFFFF">
            <path d="M99.9907916,0 C44.7773105,0 0,45.2156419 0,100.99586 C0,145.616315 28.6503576,183.466513 68.3876117,196.82103 C73.3908346,197.75101 75.214095,194.632476 75.214095,191.954133 C75.214095,189.560983 75.12815,183.206118 75.0790386,174.780497 C47.2635747,180.881167 41.3947635,161.239984 41.3947635,161.239984 C36.8458209,149.571831 30.2894503,146.465697 30.2894503,146.465697 C21.2099819,140.203829 30.9770097,140.327827 30.9770097,140.327827 C41.0141502,141.040811 46.2936247,150.737406 46.2936247,150.737406 C55.2134811,166.168879 69.7013414,161.711174 75.3982627,159.125828 C76.3068234,152.603566 78.8913104,148.152061 81.7459099,145.628714 C59.5414224,143.080568 36.195095,134.413152 36.195095,95.7135719 C36.195095,84.6902055 40.0933116,75.6693966 46.4900703,68.6139461 C45.4587311,66.0596003 42.0270727,55.7864179 47.4722981,41.8863125 C47.4722981,41.8863125 55.864207,39.17077 74.968538,52.2400931 C82.9430001,49.9957406 91.5006599,48.8797643 100.003069,48.8363652 C108.49934,48.8797643 117.050861,49.9957406 125.037601,52.2400931 C144.129654,39.17077 152.509285,41.8863125 152.509285,41.8863125 C157.966788,55.7864179 154.53513,66.0596003 153.50993,68.6139461 C159.918966,75.6693966 163.786488,84.6902055 163.786488,95.7135719 C163.786488,134.51235 140.403327,143.049569 118.131312,145.548116 C121.716443,148.66665 124.914822,154.829319 124.914822,164.25312 C124.914822,177.750234 124.792044,188.643403 124.792044,191.954133 C124.792044,194.657275 126.596888,197.800609 131.667639,196.81483 C171.374198,183.429313 200,145.603915 200,100.99586 C200,45.2156419 155.222689,0 99.9907916,0" id="octocat" sketch:type="MSShapeGroup"></path>
        </g>
    </g>
</svg>