<?xml version="1.0" encoding="UTF-8" standalone="no"?>
<svg width="157px" height="192px" viewBox="0 0 157 192" version="1.1" xmlns="http://www.w3.org/2000/svg" xmlns:xlink="http://www.w3.org/1999/xlink" xmlns:sketch="http://www.bohemiancoding.com/sketch/ns">
    <!-- Generator: Sketch 3.4.4 (17249) - http://www.bohemiancoding.com/sketch -->
    <title>pictogram-hibernation</title>
    <desc>Created with Sketch.</desc>
    <defs></defs>
    <g id="Page-1" stroke="none" stroke-width="1" fill="none" fill-rule="evenodd" sketch:type="MSPage">
        <g id="Pictogram:-Hibernation" sketch:type="MSArtboardGroup" transform="translate(-22.000000, -7.000000)">
            <g id="cave" sketch:type="MSLayerGroup" transform="translate(23.000000, 48.000000)">
                <path d="M17.825,143.188267 L137.175,143.188267 L137.175,87.8961039 C137.175,48.1316019 110.457592,15.8961039 77.5,15.8961039 C44.5424076,15.8961039 17.825,48.1316019 17.825,87.8961039 L17.825,143.188267 Z" id="Oval-195" fill="#5E5E5E" sketch:type="MSShapeGroup"></path>
                <g id="bricks" stroke="#979797" fill="#D8D8D8" sketch:type="MSShapeGroup">
                    <path d="M0,127.168831 L17.825,129.038961 L17.825,143.064935 L0,143.064935 L0,127.168831 Z" id="Rectangle-86"></path>
                    <rect id="Rectangle-86-Copy" x="0" y="111.272727" width="17.825" height="15.4285714"></rect>
                    <path d="M0,94.4415584 L17.825,96.3116883 L17.825,111.272727 L0,109.87013 L0,94.4415584 Z" id="Rectangle-86-Copy-2"></path>
                    <path d="M2.325,78.0779221 L18.9875,80.4155844 L17.825,94.4415584 L0,93.038961 L2.325,78.0779221 Z" id="Rectangle-86-Copy-3"></path>
                    <path d="M4.65,62.6493506 L21.3125,65.9220779 L18.9875,79.012987 L2.325,77.6103896 L4.65,62.6493506 Z" id="Rectangle-86-Copy-4"></path>
                    <path d="M10.075,46.7532468 L24.8,53.2987013 L20.925,64.5194805 L4.65,61.2467532 L10.075,46.7532468 Z" id="Rectangle-86-Copy-5"></path>
                    <path d="M18.6,32.7272727 L31,43.9480519 L25.575,52.3636364 L10.4625,45.3506494 L18.6,32.7272727 Z" id="Rectangle-86-Copy-6"></path>
                    <path d="M29.8375,20.5714286 L39.9125,32.2597403 L31,42.5454545 L19.7625,32.2597403 L29.8375,20.5714286 Z" id="Rectangle-86-Copy-7"></path>
                    <path d="M43.0125,10.2857143 L50.375,24.3116883 L40.3,32.2597403 L31.3875,19.1688312 L43.0125,10.2857143 Z" id="Rectangle-86-Copy-8"></path>
                    <path d="M55.4125,5.14285714 L62.775,17.7662338 L51.15,23.8441558 L44.175,9.81818182 L55.4125,5.14285714 Z" id="Rectangle-86-Copy-9"></path>
                    <path d="M104.625,7.01298701 L97.65,20.5714286 L86.8,17.2987013 L93,4.20779221 L104.625,7.01298701 Z" id="Rectangle-86-Copy-11"></path>
                    <path d="M117.8,15.4285714 L108.5,27.1168831 L98.8125,21.038961 L105.7875,7.48051948 L117.8,15.4285714 Z" id="Rectangle-86-Copy-12"></path>
                    <path d="M129.425,25.2467532 L119.7375,37.4025974 L109.275,28.0519481 L119.7375,16.3636364 L129.425,25.2467532 Z" id="Rectangle-86-Copy-13"></path>
                    <path d="M139.8875,37.1688312 L126.325,46.7532468 L120.5125,38.8051948 L130.2,25.2467532 L139.8875,37.1688312 Z" id="Rectangle-86-Copy-14"></path>
                    <path d="M146.475,48.1558442 L132.1375,59.8441558 L126.7125,48.1558442 L140.6625,38.3376623 L146.475,48.1558442 Z" id="Rectangle-86-Copy-15"></path>
                    <path d="M152.2875,63.1168831 L136.0125,72 L132.1375,61.2467532 L147.6375,49.5584416 L152.2875,63.1168831 Z" id="Rectangle-86-Copy-16"></path>
                    <path d="M155,79.4805195 L136.4,83.6883117 L136.4,72 L152.675,64.987013 L155,79.4805195 Z" id="Rectangle-86-Copy-17"></path>
                    <path d="M155,95.8441558 L136.4,98.1818182 L136.4,85.0909091 L155,81.3506494 L155,95.8441558 Z" id="Rectangle-86-Copy-18"></path>
                    <path d="M155,113.142857 L136.4,111.74026 L136.4,98.6493506 L155,98.6493506 L155,113.142857 Z" id="Rectangle-86-Copy-19"></path>
                    <path d="M155,128.571429 L136.4,126.233766 L136.4,113.142857 L155,113.142857 L155,128.571429 Z" id="Rectangle-86-Copy-20"></path>
                    <path d="M155,143.532468 L136.4,143.532468 L136.4,128.103896 L155,129.506494 L155,143.532468 Z" id="Rectangle-86-Copy-21"></path>
                    <path d="M93.775,0.467532468 L85.6375,16.8311688 L64.325,18.2337662 L54.6375,0.467532468 L93.775,0.467532468 Z" id="Rectangle-86-Copy-10"></path>
                </g>
            </g>
            <g id="bear" sketch:type="MSLayerGroup" transform="translate(48.000000, 116.000000)">
                <path d="M8.40072236,66.6513806 C16.7136769,77.5016053 37.2452466,69.1666667 51.3066667,69.1666667 C51.5745721,69.1666667 84.7742841,76.2044709 92.9157645,65.8763645 C101.226667,55.3333333 101.226667,48.1168754 101.226667,38.0416667 C101.226667,17.4961567 64.9697511,0 52.7364821,0 C40.5032132,0 1.47325989,16.6553523 1.47325989,37.2007705 C1.47325989,47.5420768 0.087767807,55.8011558 8.40072236,66.6513806 Z" id="body" fill="#D8D8D8" sketch:type="MSShapeGroup"></path>
                <path d="M12.48,74.3541667 L41.6,74.3541667 C45.0141121,74.3541667 52,82.1354167 52,82.1354167 C52,82.1354167 62.7759981,81.9981262 61.0133333,76.9479167 C59.2506686,71.8977071 49.8476376,69.5820899 45.0666667,69.0947181 C35.9504139,68.1654081 27.7333333,65.8075629 27.7333333,65.8075629 C27.7333333,65.8075629 13.8666667,56.4986429 13.1733333,48.0569245 C11.8931088,32.4694795 0,29.1569357 0,44.7697691 C0,60.3826024 7.50207346,74.3541667 12.48,74.3541667 Z" id="arm-left" stroke="#5E5E5E" fill="#D8D8D8" sketch:type="MSShapeGroup"></path>
                <path d="M87.36,74.8370066 C86.0344777,74.8370066 60.32,74.8370074 60.32,74.8370074 L45.0666667,81.270832 C45.0666667,81.270832 32.9252966,74.4986119 45.76,70.895832 C58.5947034,67.2930522 73.9162856,65.6897297 79.04,63.5788196 C84.1637144,61.4679096 88.7466667,51.1560657 88.7466667,45.2842658 C88.7466667,28.57413 103.306667,27.1668566 103.306667,43.8769925 C103.306667,60.5871283 92.3379265,74.8370066 87.36,74.8370066 Z" id="arm-right" stroke="#5E5E5E" fill="#D8D8D8" sketch:type="MSShapeGroup"></path>
                <g id="head" transform="translate(46.882472, 40.263507) rotate(-14.000000) translate(-46.882472, -40.263507) translate(16.382472, 11.263507)" sketch:type="MSShapeGroup">
                    <g id="ear-left" transform="translate(3.112415, 3.722566)">
                        <ellipse id="Oval-200" stroke="#5E5E5E" fill="#D8D8D8" cx="7.35479484" cy="9.8025858" rx="6.93333333" ry="8.64583333"></ellipse>
                        <ellipse id="Oval-206" fill="#AFAFAF" cx="7.35479484" cy="9.8025858" rx="4.16" ry="5.1875"></ellipse>
                    </g>
                    <g id="ear-right" transform="translate(37.902651, 0.738429)">
                        <ellipse id="Oval-200-Copy" stroke="#5E5E5E" fill="#D8D8D8" cx="7.98453497" cy="10.3236364" rx="6.93333333" ry="8.64583333"></ellipse>
                        <ellipse id="Oval-206-Copy" fill="#AFAFAF" cx="7.60892138" cy="9.9312229" rx="4.16" ry="5.1875"></ellipse>
                    </g>
                    <ellipse id="face" stroke="#5E5E5E" fill="#D8D8D8" cx="30.5066667" cy="31.9895833" rx="29.8133333" ry="25.9375"></ellipse>
                    <path d="M13.8666667,27.6666667 C13.8666667,27.6666667 15.2533333,30.2604167 19.4133333,30.2604167 C23.5733333,30.2604167 24.2897523,27.6666667 24.2897523,27.6666667 M33.28,27.6666667 C33.28,27.6666667 34.6666667,30.2604167 38.8266667,30.2604167 C42.9866667,30.2604167 43.7030856,27.6666667 43.7030856,27.6666667" id="eyes" stroke="#979797" stroke-linecap="square"></path>
                    <path d="M31.1288218,54.8217412 C36.298207,54.8217412 40.4888218,54.482658 40.4888218,48.4511272 C40.4888218,42.4195964 36.298207,37.5300746 31.1288218,37.5300746 C25.9594365,37.5300746 21.7688218,42.4195964 21.7688218,48.4511272 C21.7688218,54.482658 25.9594365,54.8217412 31.1288218,54.8217412 Z" id="snout" stroke="#979797" fill="#EBEBEB"></path>
                    <path d="M26.7948331,54.3648158 C26.7948331,54.3648158 28.0088219,52.9695328 30.7821551,52.9695328 C33.5554884,52.9695328 35.4014443,54.3894496 35.4014443,54.3894496 L37.2726096,53.9183033 C37.2726096,53.9183033 34.2488217,51.7956996 30.7821551,51.7956996 C27.3154885,51.7956996 24.9637426,53.9966371 24.9637426,53.9966371 L26.7948331,54.3648158 Z M30.0888218,45.0951787 L30.0888218,51.5795537 L30.0888218,52.6602829 L31.4754885,52.6602829 L31.4754885,51.5795537 L31.4754885,45.0951787 L31.4754885,44.0144496 L30.0888218,44.0144496 L30.0888218,45.0951787 M30.7821551,45.7436162 C32.6967423,45.7436162 34.2488218,44.5823548 34.2488218,43.1498662 C34.2488218,41.7173777 32.6967423,40.5561162 30.7821551,40.5561162 C28.867568,40.5561162 27.3154885,41.7173777 27.3154885,43.1498662 C27.3154885,44.5823548 28.867568,45.7436162 30.7821551,45.7436162 Z" id="snout-detail" fill="#979797"></path>
                </g>
            </g>
            <path d="M113.550781,123.066406 L124.109375,109.835938 L114.324219,109.835938 L114.324219,107.785156 L127.109375,107.785156 L127.109375,109.789062 L116.492188,122.949219 L127.109375,122.949219 L127.109375,125 L113.550781,125 L113.550781,123.066406 Z" id="Z" fill="#FFFFFF" sketch:type="MSShapeGroup"></path>
            <path d="M88.9179688,98.7773438 L106.515625,76.7265625 L90.2070312,76.7265625 L90.2070312,73.3085938 L111.515625,73.3085938 L111.515625,76.6484375 L93.8203125,98.5820312 L111.515625,98.5820312 L111.515625,102 L88.9179688,102 L88.9179688,98.7773438 Z" id="Z-Copy" fill="#FFFFFF" sketch:type="MSShapeGroup" transform="translate(100.216797, 87.654297) rotate(-8.000000) translate(-100.216797, -87.654297) "></path>
            <path d="M42.3999023,49.0854492 L69.2363281,15.4580078 L44.3657227,15.4580078 L44.3657227,10.2456055 L76.8613281,10.2456055 L76.8613281,15.3388672 L49.8759766,48.7875977 L76.8613281,48.7875977 L76.8613281,54 L42.3999023,54 L42.3999023,49.0854492 Z" id="Z-Copy-2" fill="#727272" sketch:type="MSShapeGroup" transform="translate(59.630615, 32.122803) rotate(-12.000000) translate(-59.630615, -32.122803) "></path>
        </g>
    </g>
</svg>