<?xml version="1.0" encoding="UTF-8" standalone="no"?>
<svg width="170px" height="170px" viewBox="0 0 170 170" version="1.1" xmlns="http://www.w3.org/2000/svg" xmlns:xlink="http://www.w3.org/1999/xlink" xmlns:sketch="http://www.bohemiancoding.com/sketch/ns">
    <!-- Generator: Sketch 3.4.4 (17249) - http://www.bohemiancoding.com/sketch -->
    <title>pictogram-developer</title>
    <desc>Created with Sketch.</desc>
    <defs></defs>
    <g id="Page-1" stroke="none" stroke-width="1" fill="none" fill-rule="evenodd" sketch:type="MSPage">
        <g id="Pictogram:-Developer" sketch:type="MSArtboardGroup" transform="translate(-15.000000, -15.000000)">
            <rect id="square" fill="#9D9D9D" sketch:type="MSShapeGroup" x="15" y="15" width="170" height="170" rx="6"></rect>
            <g id="shadow" sketch:type="MSLayerGroup" transform="translate(31.000000, 117.000000)">
                <path d="M34.9386095,5.4796669 C33.6677276,6.27079826 32.2291272,7.64665825 30.6417425,9.60728814 L24.2834512,17.7077448 C22.9749524,19.4275956 21.6285347,20.8120547 20.2302672,21.8611637 C18.8281207,22.9102727 17.4930709,23.7271896 16.2240853,24.3119388 C14.9500653,24.8966881 13.8192682,25.3094461 12.8336393,25.5502252 C11.8456719,25.7910043 11.1360655,25.9629868 10.7062216,26.0661779 C10.9238116,26.2381629 11.3310288,26.4617402 11.9297026,26.7369163 C12.5317646,27.0120924 13.0332347,27.4506478 13.4380723,28.0525956 C13.8514949,28.6545433 14.0055807,29.4800593 13.9045576,30.5291683 C13.8175799,31.5782773 13.1840377,32.9627364 12.0043595,34.6825872 L6.64339618,42.7830439 C5.39425927,44.7436738 4.94163309,46.1195338 5.27835386,46.9106651 C5.62433671,47.7017965 7.03063039,48.0973562 9.49038958,48.0973562 L15.2033501,48.0973562 L14.2553007,49.8 L8.25761379,49.8 C4.89889235,49.8 2.56148211,49.3700438 1.25885176,48.5101184 C-0.0255230803,47.650193 0.0929264941,46.0507557 1.62162654,43.7117587 L7.17120497,35.5597067 C7.89824664,34.5277962 8.50837438,33.5130995 9.00331884,32.515586 C9.5061013,31.5180726 9.75447689,30.6323627 9.74912291,29.8584299 C9.75259318,29.084497 9.44091949,28.4567609 8.81306169,27.9752027 C8.19275002,27.4936445 7.12235379,27.2356707 5.59669023,27.2012737 L7.16818524,25.2406536 C8.72780579,25.2062566 10.1846256,24.9482828 11.5353201,24.4667246 C12.8807657,23.9851664 14.1283419,23.3574303 15.2799003,22.5834974 C16.4285325,21.8095646 17.4925116,20.9238547 18.4757531,19.9263413 C19.4611531,18.9288278 20.3632748,17.9141311 21.1846926,16.8822206 L27.9112779,8.67857336 C29.8930447,6.3395763 31.9409095,4.74013906 34.0193518,3.88021367 C36.0785035,3.02028828 38.3095882,2.59033203 40.7272934,2.59033203 L45.0446026,2.59033203 L43.7717844,4.29297579 L39.5556272,4.29297579 C37.7403282,4.29297579 36.2029842,4.68853554 34.9386095,5.4796669 Z M134.760818,46.9106651 C135.585064,46.1195338 135.982992,44.7436738 135.951829,42.7830439 L135.696711,34.6825872 C135.616357,32.9627364 135.871646,31.5782773 136.460511,30.5291683 C137.037322,29.4800593 137.726176,28.6545433 138.530318,28.0525956 C139.32653,27.4506478 140.113552,27.0120924 140.894965,26.7369163 C141.673126,26.4617402 142.226276,26.2381629 142.556185,26.0661779 C142.193758,25.9629868 141.596554,25.7910043 140.766043,25.5502252 C139.937975,25.3094461 139.077522,24.8966881 138.187024,24.3119388 C137.302178,23.7271896 136.504821,22.9102727 135.794968,21.8611637 C135.090984,20.8120547 134.663826,19.4275956 134.502112,17.7077448 L133.617096,9.60728814 C133.372301,7.64665825 132.880007,6.27079826 132.15481,5.4796669 C131.437252,4.68853554 130.173737,4.29297579 128.358438,4.29297579 L124.142281,4.29297579 L124.051361,2.59033203 L128.36867,2.59033203 C130.786375,2.59033203 132.718509,3.02028828 134.180753,3.88021367 C135.663625,4.74013906 136.607304,6.3395763 136.982654,8.67857336 L138.153225,16.8822206 C138.284389,17.9141311 138.50965,18.9288278 138.831466,19.9263413 C139.152925,20.9238547 139.630803,21.8095646 140.268463,22.5834974 C140.910132,23.3574303 141.744934,23.9851664 142.774209,24.4667246 C143.809152,24.9482828 145.096995,25.2062566 146.634094,25.2406536 L146.925404,27.2012737 C145.377343,27.2356707 144.139037,27.4936445 143.205611,27.9752027 C142.265058,28.4567609 141.5464,29.084497 141.049083,29.8584299 C140.544025,30.6323627 140.221855,31.5180726 140.08377,32.515586 C139.939648,33.5130995 139.901547,34.5277962 139.971273,35.5597067 L140.3958,43.7117587 C140.476207,46.0507557 139.609993,47.650193 137.798134,48.5101184 C135.969357,49.3700438 133.369379,49.8 130.010657,49.8 L124.01297,49.8 L124.10666,48.0973562 L129.81962,48.0973562 C132.27938,48.0973562 133.928442,47.7017965 134.760818,46.9106651 Z" id="brackets" fill="#878787" sketch:type="MSShapeGroup"></path>
                <path d="M11.5252858,29.2385842 C12.4280354,29.2385842 13.6723521,29.1615137 15.2537716,29.0073703 C16.8291893,28.853227 17.9294318,28.6477056 18.5566644,28.3908 C19.8708231,27.8641435 21.0776287,27.2796921 22.1781994,26.6374281 C23.2663978,25.9951642 24.5393607,25.1795011 25.988163,24.1904146 C39.4163897,14.0683345 47.6046364,6.68883217 52.0616252,2.05168631 C52.1717829,1.94892408 52.3637053,1.82047321 52.6365611,1.66632986 C52.9079638,1.5121865 53.1949496,1.36767928 53.4974975,1.23280384 C53.7985529,1.09792841 54.092274,0.985533902 54.3790428,0.895616947 C54.6648166,0.805699991 54.8754278,0.760742188 55.0116288,0.760742188 C55.089458,0.760742188 55.1578291,0.780009818 55.2168271,0.818545656 C55.2759356,0.857081494 55.3332836,0.882771667 55.3888135,0.895616947 L70.6582749,24.7684493 C72.4880089,26.7209318 73.4529227,27.7035809 73.4846321,27.7164262 C73.8212333,28.0375582 74.5643338,28.3233614 75.7176022,28.5738443 C76.8783651,28.8243273 77.94175,28.9977359 78.9039745,29.0940755 C79.8686076,29.1904151 80.5541576,29.2385842 80.9588384,29.2385842 C81.2327849,29.367037 81.4002186,29.5854035 81.460513,29.8936902 C81.5208073,30.2019769 81.5148432,30.4139208 81.4424073,30.5295283 C80.5219775,30.516683 79.2589991,30.4877816 77.654601,30.4428231 C76.0520639,30.3978646 74.6182536,30.3625406 73.3523628,30.3368501 C72.0873144,30.3111595 70.7449443,30.2983144 69.3245804,30.2983144 C67.8095256,30.2983144 66.4049524,30.3111595 65.1101711,30.3368501 C63.8145264,30.3625406 62.3596945,30.3946534 60.7450712,30.4331892 C59.1288369,30.471725 57.7332935,30.5038378 56.5590229,30.5295283 C56.2893695,30.4139208 56.1917031,30.1987656 56.2651875,29.8840563 C56.338414,29.5693469 56.5228945,29.3541917 56.8181883,29.2385842 C57.6275501,29.2385842 58.7385184,29.1807813 60.1479281,29.0651738 C61.5530734,28.9495663 62.475028,28.8146929 62.9156912,28.6605495 C63.19932,28.5320967 63.3469413,28.3201528 63.3592702,28.0247114 C63.3758875,27.6265077 62.820223,26.7016615 61.727509,25.2501449 C60.6817939,23.7986283 59.6806993,22.4434717 58.7191289,21.1846343 L57.3089807,19.3156555 C57.1377513,19.1872027 56.9579743,19.1229773 56.7690912,19.1229773 C55.9636972,19.0972867 52.8780177,19.0844416 47.5114864,19.0844416 C43.5742323,19.0844416 40.1719002,19.1293994 37.2985836,19.2193164 C37.2445381,19.2193164 37.1727007,19.2289502 37.0830338,19.2482181 C36.9933196,19.267486 36.9156459,19.2899649 36.8500145,19.3156555 C33.980412,21.5635792 31.6070572,23.381159 29.7251971,24.806985 C28.1440768,26.0272865 27.1016466,27.0870062 26.6218827,27.9861757 C26.5190761,28.1788549 26.6555898,28.3554748 27.0329086,28.5160408 C27.4122016,28.6766068 27.8983035,28.7986352 28.4908003,28.8821295 C29.0847002,28.9656238 29.7483251,29.0362718 30.4815132,29.0940755 C31.2158621,29.1518793 31.8279096,29.1904145 32.3169929,29.2096825 C32.8063289,29.2289504 33.1756033,29.2385842 33.4246376,29.2385842 C33.5524646,29.3028106 33.5677449,29.5019094 33.4705895,29.8358867 C33.3738448,30.169864 33.2347818,30.4010755 33.0527724,30.5295283 C32.0195096,30.5038378 30.8870991,30.471725 29.6559213,30.4331892 C28.4259913,30.3946534 27.2888224,30.3625406 26.2439739,30.3368501 C25.1998309,30.3111595 23.9520789,30.2983144 22.5001513,30.2983144 C21.0166602,30.2983144 19.6910952,30.3111595 18.5228403,30.3368501 C17.3538167,30.3625406 16.0613425,30.3946534 14.644913,30.4331892 C13.2270936,30.471725 11.8757472,30.5038378 10.5912441,30.5295283 C10.4795536,30.4653019 10.5404747,30.2726256 10.7738117,29.9514936 C11.0071487,29.6303616 11.2577955,29.3927275 11.5252858,29.2385842 Z M39.6234337,17.2539984 C42.7719438,17.3182248 45.5301001,17.3503376 47.8932075,17.3503376 C50.1775447,17.3503376 52.7471823,17.3053798 55.596227,17.2154628 C55.6486299,17.2154628 55.7042802,17.1961952 55.7631323,17.1576593 C55.8219211,17.1191235 55.867573,17.0805882 55.900113,17.0420524 L55.9097036,16.9842489 L51.0702127,6.17500038 L39.5393597,17.080588 C39.4905403,17.1961956 39.5185646,17.2539984 39.6234337,17.2539984 Z M79.4846784,23.3426304 C80.3986868,22.6746759 81.4343858,22.237943 82.601362,22.0324185 C83.6021673,21.8654299 85.0404649,21.6245845 86.9065529,21.3098751 C88.7545827,20.9951658 90.3380317,20.725419 91.6634428,20.5006266 C92.9794563,20.2758342 94.2875418,20.0382001 95.5868562,19.7877171 C96.8755962,19.5372342 97.8107447,19.3477692 98.3983651,19.2193164 C98.6165046,19.1679353 98.7834528,19.1229774 98.8993807,19.0844416 C99.0151506,19.0459058 99.0993974,18.9848916 99.1520625,18.9013973 C99.2044881,18.817903 99.2135036,18.7151423 99.1792138,18.5931121 C99.144824,18.471082 99.0760719,18.3073071 98.9730303,18.1017826 L98.3644443,16.8879098 C98.0295593,16.2199553 97.3661142,15.5584333 96.3845608,14.9033241 C95.4169696,14.2482148 94.2602205,13.7022986 92.9162925,13.2655591 C91.5890119,12.8288196 90.2629979,12.6104532 88.9257253,12.6104532 C87.5155105,12.6104532 86.5468594,12.8384535 86.011893,13.2944609 C85.4664602,13.7504683 85.1694795,14.4408917 85.1214,15.3657518 C85.0619123,16.110778 84.7299327,16.6566942 84.1247326,17.0035168 C83.5118564,17.3503393 82.623341,17.523748 81.4649168,17.523748 C80.543443,17.523748 79.7531725,17.3310717 79.0992939,16.9457133 C78.4523648,16.5603549 78.0864237,16.123622 77.9962475,15.6355013 C77.9843822,15.5712749 77.9914777,15.4717255 78.0173683,15.3368501 C78.0430378,15.2019747 78.091995,15.0574674 78.1640281,14.9033241 C78.2355558,14.7491807 78.3152512,14.6399975 78.4033376,14.5757711 C79.0825184,14.2161033 79.9168452,13.8403845 80.9024993,13.4486035 C81.8741831,13.0568224 82.9891739,12.661836 84.2441508,12.2636324 C85.4806851,11.8654287 86.8367149,11.537879 88.3156885,11.2809734 C89.7807629,11.0240678 91.2164025,10.8956169 92.6330745,10.8956169 C95.0178057,10.8956169 97.4249413,11.4929135 99.9103706,12.6875245 C102.470223,13.8821354 104.29481,15.3272077 105.32837,17.0227846 L110.942449,26.2328038 C111.795919,27.6329393 113.329923,28.3329965 115.544509,28.3329965 C115.85209,28.3329965 116.151163,28.3201514 116.441579,28.2944609 C116.731784,28.2687703 116.973529,28.2398689 117.166842,28.2077557 C117.35997,28.1756425 117.554008,28.1338959 117.74886,28.0825148 C117.943397,28.0311337 118.08848,27.9861759 118.184256,27.9476401 C118.279905,27.9091042 118.383069,27.870569 118.493738,27.8320331 C118.604264,27.7934973 118.654974,27.7678071 118.645976,27.7549618 C118.951188,27.7549618 119.190029,27.8769902 119.362506,28.1210505 C119.580372,28.4293372 119.594602,28.7119291 119.4033,28.9688347 C118.777974,29.2771214 117.711248,29.6367838 116.193803,30.0478327 C114.657152,30.4588817 113.358368,30.6644031 112.311816,30.6644031 C110.789559,30.6644031 109.21096,30.3625435 107.591188,29.7588154 C105.991706,29.1550873 104.84248,28.4871428 104.133209,27.7549618 C103.310245,28.1917013 101.544367,28.801843 98.79672,29.585405 C95.9851637,30.368967 93.7139946,30.7607422 92.0310764,30.7607422 C88.3794613,30.7607422 85.1950811,30.2662063 82.5252706,29.2771198 C79.9187008,28.2880333 78.520691,27.0677501 78.2837687,25.6162335 C78.1453894,24.7684451 78.5506848,24.010585 79.4846784,23.3426304 Z M88.0641853,26.7434011 C88.8269733,27.2250991 89.8039918,27.6104517 90.9955957,27.8994705 C92.1957286,28.1884893 93.4602742,28.3329965 94.7828739,28.3329965 C95.6748597,28.3329965 96.6524466,28.2591373 97.7123489,28.1114166 C98.7678314,27.9636958 99.7005124,27.7902872 100.510123,27.5911853 C101.31492,27.3920835 101.97704,27.1897734 102.497525,26.9842489 C103.014556,26.7787245 103.242793,26.6181609 103.184832,26.5025534 L100.141902,20.4331892 C95.4793477,21.113989 92.6420113,21.5442994 91.7011665,21.7241333 C89.9595766,22.0452653 88.6401969,22.5012659 87.7422141,23.0921487 C86.8258255,23.6830316 86.4763475,24.3895114 86.7075738,25.2116092 C86.8593161,25.751111 87.3094918,26.2617032 88.0641853,26.7434011 Z" id="Aa" fill="#5A5A5A" sketch:type="MSShapeGroup"></path>
            </g>
            <path d="M45.2,77.3829508 L39.44,77.3829508 C36.9599876,77.3829508 35.3000042,78.168881 34.46,79.740765 C33.6199958,81.312649 33.2,84.0463193 33.2,87.9418579 L33.2,104.036503 C33.2,107.453642 32.8400036,110.204398 32.12,112.288852 C31.3999964,114.373307 30.5600048,115.996424 29.6,117.158251 C28.6399952,118.320079 27.7000046,119.14018 26.78,119.618579 C25.8599954,120.096979 25.200002,120.438687 24.8,120.643716 C25.200002,120.98543 25.8599954,121.429651 26.78,121.976393 C27.7000046,122.523136 28.6399952,123.394493 29.6,124.590492 C30.5600048,125.78649 31.3999964,127.426693 32.12,129.511148 C32.8400036,131.595602 33.2,134.346358 33.2,137.763497 L33.2,153.858142 C33.2,157.753681 33.6199958,160.487351 34.46,162.059235 C35.3000042,163.631119 36.9599876,164.417049 39.44,164.417049 L45.2,164.417049 L45.2,167.8 L39.2,167.8 C35.8399832,167.8 33.2400092,166.945728 31.4,165.237158 C29.5599908,163.528589 28.64,160.350697 28.64,155.703388 L28.64,139.50623 C28.64,137.455946 28.5200012,135.439864 28.28,133.457923 C28.0399988,131.475983 27.6000032,129.716183 26.96,128.17847 C26.3199968,126.640757 25.4400056,125.39352 24.32,124.436721 C23.1999944,123.479922 21.7600088,122.967359 20,122.899016 L20,119.003497 C21.7600088,118.935154 23.1999944,118.422591 24.32,117.465792 C25.4400056,116.508993 26.3199968,115.261756 26.96,113.724044 C27.6000032,112.186331 28.0399988,110.426531 28.28,108.44459 C28.5200012,106.462649 28.64,104.446568 28.64,102.396284 L28.64,86.096612 C28.64,81.4493028 29.5599908,78.2714111 31.4,76.5628415 C33.2400092,74.854272 35.8399832,74 39.2,74 L45.2,74 L45.2,77.3829508 Z M155,164.417049 L160.76,164.417049 C163.240012,164.417049 164.899996,163.631119 165.74,162.059235 C166.580004,160.487351 167,157.753681 167,153.858142 L167,137.763497 C167,134.346358 167.359996,131.595602 168.08,129.511148 C168.800004,127.426693 169.639995,125.78649 170.6,124.590492 C171.560005,123.394493 172.499995,122.523136 173.42,121.976393 C174.340005,121.429651 174.999998,120.98543 175.4,120.643716 C174.999998,120.438687 174.340005,120.096979 173.42,119.618579 C172.499995,119.14018 171.560005,118.320079 170.6,117.158251 C169.639995,115.996424 168.800004,114.373307 168.08,112.288852 C167.359996,110.204398 167,107.453642 167,104.036503 L167,87.9418579 C167,84.0463193 166.580004,81.312649 165.74,79.740765 C164.899996,78.168881 163.240012,77.3829508 160.76,77.3829508 L155,77.3829508 L155,74 L161,74 C164.360017,74 166.959991,74.854272 168.8,76.5628415 C170.640009,78.2714111 171.56,81.4493028 171.56,86.096612 L171.56,102.396284 C171.56,104.446568 171.679999,106.462649 171.92,108.44459 C172.160001,110.426531 172.599997,112.186331 173.24,113.724044 C173.880003,115.261756 174.759994,116.508993 175.88,117.465792 C177.000006,118.422591 178.439991,118.935154 180.2,119.003497 L180.2,122.899016 C178.439991,122.967359 177.000006,123.479922 175.88,124.436721 C174.759994,125.39352 173.880003,126.640757 173.24,128.17847 C172.599997,129.716183 172.160001,131.475983 171.92,133.457923 C171.679999,135.439864 171.56,137.455946 171.56,139.50623 L171.56,155.703388 C171.56,160.350697 170.640009,163.528589 168.8,165.237158 C166.959991,166.945728 164.360017,167.8 161,167.8 L155,167.8 L155,164.417049 Z" id="brackets" fill="#FFFFFF" sketch:type="MSShapeGroup"></path>
            <path d="M48.6787109,147.079102 C48.6787109,146.411781 48.745442,145.91797 48.8789062,145.597656 C49.6529987,145.597656 50.6739845,145.437502 51.9418945,145.117188 C53.2098045,144.796873 54.0439433,144.369794 54.4443359,143.835938 C55.2985069,142.741531 56.0392221,141.527025 56.6665039,140.192383 C57.2937857,138.857741 58.0078085,137.162771 58.8085938,135.107422 C67.0032962,114.073463 72.9824031,98.738655 76.7460938,89.1025391 C76.8528651,88.8889963 77.0597315,88.6220719 77.3666992,88.3017578 C77.6736669,87.9814437 78.0073224,87.6811537 78.3676758,87.4008789 C78.7280291,87.1206041 79.0883771,86.8870452 79.4487305,86.7001953 C79.8090838,86.5133454 80.0826814,86.4199219 80.2695312,86.4199219 C80.3763026,86.4199219 80.4763993,86.4599605 80.5698242,86.5400391 C80.6632492,86.6201176 80.7499996,86.6735025 80.8300781,86.7001953 L99.8085938,136.308594 C101.330086,140.365906 102.104167,142.407877 102.130859,142.43457 C102.397788,143.101891 103.018387,143.695798 103.992676,144.216309 C104.966965,144.736819 105.861161,145.097167 106.675293,145.297363 C107.489425,145.49756 108.069985,145.597656 108.416992,145.597656 C108.630535,145.864585 108.737305,146.318356 108.737305,146.958984 C108.737305,147.599613 108.697266,148.040038 108.617188,148.280273 C107.843095,148.253581 106.782071,148.193523 105.434082,148.100098 C104.086094,148.006673 102.878261,147.933268 101.810547,147.879883 C100.742833,147.826497 99.6084044,147.799805 98.4072266,147.799805 C97.1259702,147.799805 95.9381565,147.826497 94.84375,147.879883 C93.7493435,147.933268 92.5214912,148 91.1601562,148.080078 C89.7988213,148.160157 88.6243539,148.226888 87.6367188,148.280273 C87.3964832,148.040038 87.2897134,147.592939 87.3164062,146.938965 C87.3430991,146.28499 87.4765613,145.837892 87.7167969,145.597656 C88.4108108,145.597656 89.3583924,145.47754 90.5595703,145.237305 C91.7607482,144.997069 92.5481752,144.716798 92.921875,144.396484 C93.1621106,144.129556 93.2822266,143.689131 93.2822266,143.075195 C93.2822266,142.247717 92.7550508,140.325861 91.7006836,137.30957 C90.6463163,134.293279 89.598638,131.477227 88.5576172,128.861328 L86.9560547,124.977539 C86.7692048,124.710611 86.5823577,124.577148 86.3955078,124.577148 C85.5947226,124.523763 82.538438,124.49707 77.2265625,124.49707 C73.3294076,124.49707 69.9795062,124.590494 67.1767578,124.777344 C67.1233721,124.777344 67.056641,124.797363 66.9765625,124.837402 C66.896484,124.877442 66.8297529,124.924153 66.7763672,124.977539 L66.7363281,125.057617 C65.0012934,129.648786 63.5999402,133.425766 62.5322266,136.388672 C61.6780556,138.924492 61.2509766,141.126618 61.2509766,142.995117 C61.2509766,143.39551 61.4511699,143.762531 61.8515625,144.096191 C62.2519551,144.429852 62.725746,144.68343 63.2729492,144.856934 C63.8201525,145.030437 64.4207324,145.177245 65.074707,145.297363 C65.7286817,145.417481 66.2692036,145.497558 66.6962891,145.537598 C67.1233745,145.577637 67.4436838,145.597656 67.6572266,145.597656 C67.7906908,145.73112 67.8774412,146.144853 67.9174805,146.838867 C67.9575197,147.532881 67.9241542,148.013345 67.8173828,148.280273 C66.936519,148.226888 65.968918,148.160157 64.9145508,148.080078 C63.8601835,148 62.8859094,147.933268 61.9916992,147.879883 C61.097489,147.826497 60.0364645,147.799805 58.8085938,147.799805 C57.5540302,147.799805 56.4396208,147.826497 55.465332,147.879883 C54.4910433,147.933268 53.4166725,148 52.2421875,148.080078 C51.0677025,148.160157 49.9466199,148.226888 48.8789062,148.280273 C48.745442,148.146809 48.6787109,147.746423 48.6787109,147.079102 L48.6787109,147.079102 Z M68.4980469,120.333008 C68.4980469,120.573243 68.5514318,120.693359 68.6582031,120.693359 C71.888037,120.826824 74.7040896,120.893555 77.1064453,120.893555 C79.4287225,120.893555 82.0312356,120.800131 84.9140625,120.613281 C84.9674482,120.613281 85.0208331,120.573243 85.0742188,120.493164 C85.1276044,120.413086 85.1676431,120.333008 85.1943359,120.25293 L85.1943359,120.132812 L77.0263672,97.6708984 L68.4980469,120.333008 Z M106.630156,138.070312 C106.630156,136.308585 107.117293,134.733731 108.091582,133.345703 C109.065871,131.957675 110.126895,131.050132 111.274687,130.623047 C112.262322,130.27604 113.690368,129.775557 115.558867,129.121582 C117.427366,128.467607 119.042259,127.907066 120.403594,127.439941 C121.764928,126.972817 123.132916,126.479007 124.507597,125.958496 C125.882279,125.437986 126.889918,125.044272 127.530547,124.777344 C127.770782,124.670572 127.957629,124.577149 128.091094,124.49707 C128.224558,124.416992 128.338001,124.290203 128.431426,124.116699 C128.524851,123.943196 128.584909,123.729656 128.611601,123.476074 C128.638294,123.222492 128.65164,122.882164 128.65164,122.455078 L128.65164,119.932617 C128.65164,118.544589 128.304639,117.169929 127.610625,115.808594 C126.916611,114.447259 125.94901,113.31283 124.707793,112.405273 C123.466576,111.497717 122.111934,111.043945 120.643828,111.043945 C119.095643,111.043945 117.947868,111.517736 117.200469,112.465332 C116.453069,113.412928 115.905874,114.847647 115.558867,116.769531 C115.265246,118.317716 114.758089,119.452145 114.037383,120.172852 C113.316676,120.893558 112.369094,121.253906 111.194609,121.253906 C110.26036,121.253906 109.499625,120.85352 108.912383,120.052734 C108.32514,119.251949 108.031523,118.344406 108.031523,117.330078 C108.031523,117.196614 108.058216,116.989747 108.111601,116.709473 C108.164987,116.429198 108.245064,116.128908 108.351836,115.808594 C108.458607,115.48828 108.565377,115.261394 108.672148,115.12793 C109.472933,114.38053 110.453881,113.599776 111.615019,112.785645 C112.776158,111.971513 114.11078,111.15072 115.618926,110.323242 C117.127071,109.495764 118.761983,108.815107 120.523711,108.28125 C122.285438,107.747393 123.967062,107.480469 125.568633,107.480469 C128.26461,107.480469 130.626891,108.721667 132.655547,111.204102 C134.684203,113.686536 135.698515,116.689436 135.698515,120.212891 L135.698515,139.351562 C135.698515,142.261082 136.659443,143.71582 138.581328,143.71582 C138.848256,143.71582 139.115181,143.689128 139.382109,143.635742 C139.649038,143.582357 139.875923,143.522299 140.062773,143.455566 C140.249623,143.388834 140.443143,143.302084 140.64334,143.195312 C140.843536,143.088541 140.997017,142.995118 141.103789,142.915039 C141.21056,142.834961 141.324003,142.754883 141.444121,142.674805 C141.564239,142.594726 141.624297,142.541341 141.624297,142.514648 C141.891225,142.514648 142.024687,142.768227 142.024687,143.275391 C142.024687,143.916019 141.864533,144.503253 141.544219,145.037109 C140.823512,145.677738 139.702429,146.425126 138.180937,147.279297 C136.659445,148.133468 135.458285,148.560547 134.577422,148.560547 C133.296165,148.560547 132.108352,147.933275 131.013945,146.678711 C129.919539,145.424147 129.225535,144.03614 128.931914,142.514648 C128.024357,143.422205 126.242637,144.690096 123.586699,146.318359 C120.930761,147.946623 118.895463,148.760742 117.480742,148.760742 C114.411065,148.760742 111.835245,147.733083 109.753203,145.677734 C107.671161,143.622386 106.630156,141.086604 106.630156,138.070312 L106.630156,138.070312 Z M114.317656,137.229492 C114.317656,138.350592 114.591254,139.411616 115.138457,140.412598 C115.68566,141.413579 116.439722,142.214352 117.400664,142.814941 C118.361606,143.41553 119.415958,143.71582 120.56375,143.71582 C121.337842,143.71582 122.21202,143.562339 123.186308,143.255371 C124.160597,142.948403 125.041448,142.588055 125.828887,142.174316 C126.616325,141.760577 127.283636,141.340171 127.83084,140.913086 C128.378043,140.486 128.65164,140.152345 128.65164,139.912109 L128.65164,127.299805 C123.846929,128.714525 120.964145,129.608722 120.003203,129.982422 C118.241475,130.649743 116.853468,131.597325 115.83914,132.825195 C114.824812,134.053066 114.317656,135.52115 114.317656,137.229492 L114.317656,137.229492 Z" id="Aa" fill="#FFFFFF" sketch:type="MSShapeGroup"></path>
            <g id="ruler" sketch:type="MSLayerGroup" transform="translate(46.000000, 82.000000)">
                <path d="M0,66 L96,66 L96,0 L109,0 L109,79 L0,79 L0,66 Z" id="ruler-wood" fill="#E4E4E4" sketch:type="MSShapeGroup"></path>
                <g id="tick-marks" transform="translate(2.000000, 2.000000)" fill="#575757" sketch:type="MSShapeGroup">
                    <path d="M0,64.9 L0,72.1 L0,73 L1,73 L1,72.1 L1,64.9 L1,64 L0,64 L0,64.9 Z M15,64.9 L15,72.1 L15,73 L16,73 L16,72.1 L16,64.9 L16,64 L15,64 L15,64.9 Z M5,64.9 L5,68.5 L5,69.4 L6,69.4 L6,68.5 L6,64.9 L6,64 L5,64 L5,64.9 Z M10,64.9 L10,68.5 L10,69.4 L11,69.4 L11,68.5 L11,64.9 L11,64 L10,64 L10,64.9 Z M30,64.9 L30,72.1 L30,73 L31,73 L31,72.1 L31,64.9 L31,64 L30,64 L30,64.9 Z M20,64.9 L20,68.5 L20,69.4 L21,69.4 L21,68.5 L21,64.9 L21,64 L20,64 L20,64.9 Z M25,64.9 L25,68.5 L25,69.4 L26,69.4 L26,68.5 L26,64.9 L26,64 L25,64 L25,64.9 Z M45,64.9 L45,72.1 L45,73 L46,73 L46,72.1 L46,64.9 L46,64 L45,64 L45,64.9 Z M35,64.9 L35,68.5 L35,69.4 L36,69.4 L36,68.5 L36,64.9 L36,64 L35,64 L35,64.9 Z M40,68.5 L40,69.4 L41,69.4 L41,68.5 L41,64.9 L41,64 L40,64 L40,64.9 L40,68.5 Z M60,64.9 L60,72.1 L60,73 L61,73 L61,72.1 L61,64.9 L61,64 L60,64 L60,64.9 Z M50,64.9 L50,68.5 L50,69.4 L51,69.4 L51,68.5 L51,64.9 L51,64 L50,64 L50,64.9 Z M55,64.9 L55,68.5 L55,69.4 L56,69.4 L56,68.5 L56,64.9 L56,64 L55,64 L55,64.9 Z M75,64.9 L75,72.1 L75,73 L76,73 L76,72.1 L76,64.9 L76,64 L75,64 L75,64.9 Z M65,68.5 L65,69.4 L66,69.4 L66,68.5 L66,64.9 L66,64 L65,64 L65,64.9 L65,68.5 Z M70,64.9 L70,68.5 L70,69.4 L71,69.4 L71,68.5 L71,64.9 L71,64 L70,64 L70,64.9 Z M90,64.9 L90,72.1 L90,73 L91,73 L91,72.1 L91,64.9 L91,64 L90,64 L90,64.9 Z M80,64.9 L80,68.5 L80,69.4 L81,69.4 L81,68.5 L81,64.9 L81,64 L80,64 L80,64.9 Z M85,64.9 L85,68.5 L85,69.4 L86,69.4 L86,68.5 L86,64.9 L86,64 L85,64 L85,64.9 Z" id="horizontal"></path>
                    <path d="M94.9,61 L102.1,61 L103,61 L103,60 L102.1,60 L94.9,60 L94,60 L94,61 L94.9,61 Z M94.9,56 L98.5,56 L99.4,56 L99.4,55 L98.5,55 L94.9,55 L94,55 L94,56 L94.9,56 Z M98.5,51 L99.4,51 L99.4,50 L98.5,50 L94.9,50 L94,50 L94,51 L94.9,51 L98.5,51 Z M94.9,46 L102.1,46 L103,46 L103,45 L102.1,45 L94.9,45 L94,45 L94,46 L94.9,46 Z M94.9,41 L98.5,41 L99.4,41 L99.4,40 L98.5,40 L94.9,40 L94,40 L94,41 L94.9,41 Z M94.9,36 L98.5,36 L99.4,36 L99.4,35 L98.5,35 L94.9,35 L94,35 L94,36 L94.9,36 Z M94.9,31 L102.1,31 L103,31 L103,30 L102.1,30 L94.9,30 L94,30 L94,31 L94.9,31 Z M94.9,26 L98.5,26 L99.4,26 L99.4,25 L98.5,25 L94.9,25 L94,25 L94,26 L94.9,26 Z M94.9,21 L98.5,21 L99.4,21 L99.4,20 L98.5,20 L94.9,20 L94,20 L94,21 L94.9,21 Z M94.9,16 L102.1,16 L103,16 L103,15 L102.1,15 L94.9,15 L94,15 L94,16 L94.9,16 Z M94.9,1 L102.1,1 L103,1 L103,0 L102.1,0 L94.9,0 L94,0 L94,1 L94.9,1 Z M94.9,11 L98.5,11 L99.4,11 L99.4,10 L98.5,10 L94.9,10 L94,10 L94,11 L94.9,11 Z M94.9,6 L98.5,6 L99.4,6 L99.4,5 L98.5,5 L94.9,5 L94,5 L94,6 L94.9,6 Z" id="horizontal"></path>
                </g>
            </g>
        </g>
    </g>
</svg>