<?xml version="1.0" encoding="UTF-8" standalone="no"?>
<svg width="200px" height="200px" viewBox="0 0 200 200" version="1.1" xmlns="http://www.w3.org/2000/svg" xmlns:xlink="http://www.w3.org/1999/xlink">
    <!-- Generator: Sketch 3.8.2 (29753) - http://www.bohemiancoding.com/sketch -->
    <title>static-scatter</title>
    <desc>Created with Sketch.</desc>
    <defs></defs>
    <g id="Page-1" stroke="none" stroke-width="1" fill="none" fill-rule="evenodd">
        <g id="static-scatter" fill="#000000">
            <rect id="Rectangle-1" x="0" y="0" width="20" height="20"></rect>
            <rect id="Rectangle-1-Copy-7" x="0" y="40" width="20" height="20"></rect>
            <rect id="Rectangle-1-Copy-8" x="20" y="60" width="20" height="20"></rect>
            <rect id="Rectangle-1-Copy-10" x="20" y="100" width="20" height="20"></rect>
            <rect id="Rectangle-1-Copy-14" x="20" y="140" width="20" height="20"></rect>
            <rect id="Rectangle-1-Copy-12" x="20" y="180" width="20" height="20"></rect>
            <rect id="Rectangle-1-Copy-11" x="0" y="120" width="20" height="20"></rect>
            <rect id="Rectangle-1-Copy-2" x="60" y="20" width="20" height="20"></rect>
            <rect id="Rectangle-1-Copy-3" x="80" y="20" width="20" height="20"></rect>
            <rect id="Rectangle-1-Copy-6" x="100" y="120" width="20" height="20"></rect>
            <rect id="Rectangle-1-Copy-9" x="0" y="140" width="20" height="20"></rect>
            <rect id="Rectangle-1-Copy-13" x="40" y="180" width="20" height="20"></rect>
            <rect id="Rectangle-1-Copy-15" x="60" y="160" width="20" height="20"></rect>
            <rect id="Rectangle-1-Copy-17" x="120" y="180" width="20" height="20"></rect>
            <rect id="Rectangle-1-Copy-21" x="140" y="120" width="20" height="20"></rect>
            <rect id="Rectangle-1-Copy-24" x="160" y="100" width="20" height="20"></rect>
            <rect id="Rectangle-1-Copy-27" x="140" y="100" width="20" height="20"></rect>
            <rect id="Rectangle-1-Copy-28" x="100" y="80" width="20" height="20"></rect>
            <rect id="Rectangle-1-Copy-30" x="40" y="20" width="20" height="20"></rect>
            <rect id="Rectangle-1-Copy-22" x="40" y="40" width="20" height="20"></rect>
            <rect id="Rectangle-1-Copy-20" x="40" y="80" width="20" height="20"></rect>
            <rect id="Rectangle-1-Copy-19" x="60" y="100" width="20" height="20"></rect>
            <rect id="Rectangle-1-Copy-18" x="60" y="140" width="20" height="20"></rect>
            <rect id="Rectangle-1-Copy-16" x="60" y="180" width="20" height="20"></rect>
            <rect id="Rectangle-1-Copy-5" x="80" y="0" width="20" height="20"></rect>
            <rect id="Rectangle-1-Copy-4" x="100" y="20" width="20" height="20"></rect>
            <rect id="Rectangle-1-Copy-29" x="100" y="60" width="20" height="20"></rect>
            <rect id="Rectangle-1-Copy-26" x="100" y="140" width="20" height="20"></rect>
            <rect id="Rectangle-1-Copy-25" x="80" y="160" width="20" height="20"></rect>
            <rect id="Rectangle-1-Copy-23" x="80" y="120" width="20" height="20"></rect>
            <rect id="Rectangle-1-Copy-49" x="120" y="0" width="20" height="20"></rect>
            <rect id="Rectangle-1-Copy-48" x="140" y="20" width="20" height="20"></rect>
            <rect id="Rectangle-1-Copy-46" x="140" y="60" width="20" height="20"></rect>
            <rect id="Rectangle-1-Copy-45" x="120" y="80" width="20" height="20"></rect>
            <rect id="Rectangle-1-Copy-42" x="120" y="160" width="20" height="20"></rect>
            <rect id="Rectangle-1-Copy-41" x="140" y="180" width="20" height="20"></rect>
            <rect id="Rectangle-1-Copy-40" x="120" y="120" width="20" height="20"></rect>
            <rect id="Rectangle-1-Copy-39" x="160" y="0" width="20" height="20"></rect>
            <rect id="Rectangle-1-Copy-38" x="160" y="40" width="20" height="20"></rect>
            <rect id="Rectangle-1-Copy-37" x="180" y="60" width="20" height="20"></rect>
            <rect id="Rectangle-1-Copy-36" x="160" y="80" width="20" height="20"></rect>
            <rect id="Rectangle-1-Copy-34" x="180" y="140" width="20" height="20"></rect>
            <rect id="Rectangle-1-Copy-33" x="160" y="160" width="20" height="20"></rect>
            <rect id="Rectangle-1-Copy-32" x="180" y="180" width="20" height="20"></rect>
            <rect id="Rectangle-1-Copy-31" x="160" y="120" width="20" height="20"></rect>
            <rect id="Rectangle-1-Copy-43" x="180" y="20" width="20" height="20"></rect>
        </g>
    </g>
</svg>