<?xml version="1.0" encoding="UTF-8" standalone="no"?>
<svg width="200px" height="200px" viewBox="0 0 200 200" version="1.1" xmlns="http://www.w3.org/2000/svg" xmlns:xlink="http://www.w3.org/1999/xlink" xmlns:sketch="http://www.bohemiancoding.com/sketch/ns">
    <!-- Generator: Sketch 3.4.4 (17249) - http://www.bohemiancoding.com/sketch -->
    <title>icon-twitter</title>
    <desc>Created with Sketch.</desc>
    <defs></defs>
    <g id="Page-1" stroke="none" stroke-width="1" fill="none" fill-rule="evenodd" sketch:type="MSPage">
        <g id="Icon:-Twitter" sketch:type="MSArtboardGroup" fill="#FFFFFF">
            <path d="M176.432935,44.7017448 C184.905081,39.6232854 191.410805,31.5820257 194.47456,22.0008413 C186.546692,26.7025495 177.765097,30.1174513 168.418742,31.9580453 C160.933465,23.9833571 150.269578,19 138.468122,19 C115.806723,19 97.4344343,37.3715571 97.4344343,60.0314935 C97.4344343,63.2474121 97.7980175,66.3792019 98.4973847,69.3822378 C64.3951864,67.6711292 34.1607228,51.3354914 13.9229672,26.5108819 C10.3910165,32.5710889 8.36753356,39.6196276 8.36753356,47.1392882 C8.36753356,61.3746296 15.6121292,73.9339771 26.6220418,81.2919639 C19.8953875,81.0790812 13.5688943,79.2333663 8.03613885,76.160101 C8.03321263,76.331285 8.03321263,76.5032006 8.03321263,76.6758477 C8.03321263,96.5566041 22.1771096,113.140971 40.9480961,116.909945 C37.5046637,117.8478 33.8798054,118.348915 30.1371667,118.348915 C27.4933246,118.348915 24.922638,118.092139 22.4177914,117.61297 C27.6389041,133.914957 42.7923479,145.777863 60.7476499,146.109258 C46.7047076,157.11405 29.0120341,163.673909 9.78821464,163.673909 C6.4764622,163.673909 3.21006621,163.480047 0,163.101101 C18.1586744,174.743078 39.7271297,181.535572 62.8991551,181.535572 C138.372289,181.535572 179.643732,119.011705 179.643732,64.7895314 C179.643732,63.0103881 179.604228,61.240755 179.52522,59.4813636 C187.541607,53.6962215 194.498701,46.4691832 200,38.2406452 C192.641282,41.504115 184.733165,43.7097553 176.432935,44.7017448 Z" id="birdie" sketch:type="MSShapeGroup"></path>
        </g>
    </g>
</svg>